<svg width="897" height="303" viewBox="0 0 897 303" fill="none" xmlns="http://www.w3.org/2000/svg">
<path d="M387.85 88.5V124H386.15V106.65H362.55V124H360.8V88.5H362.55V105.05H386.15V88.5H387.85ZM407.178 124.5C405.411 124.5 403.761 124.15 402.228 123.45C400.695 122.717 399.345 121.733 398.178 120.5C397.045 119.233 396.145 117.783 395.478 116.15C394.845 114.483 394.528 112.717 394.528 110.85C394.528 109.017 394.845 107.3 395.478 105.7C396.111 104.1 396.995 102.7 398.128 101.5C399.261 100.3 400.578 99.35 402.078 98.65C403.578 97.95 405.211 97.6 406.978 97.6C408.778 97.6 410.445 97.95 411.978 98.65C413.511 99.35 414.845 100.317 415.978 101.55C417.111 102.75 417.995 104.167 418.628 105.8C419.295 107.433 419.628 109.167 419.628 111C419.628 111.067 419.628 111.2 419.628 111.4C419.628 111.6 419.611 111.717 419.578 111.75H396.278C396.411 113.35 396.778 114.85 397.378 116.25C398.011 117.617 398.811 118.8 399.778 119.8C400.778 120.8 401.911 121.6 403.178 122.2C404.478 122.767 405.845 123.05 407.278 123.05C408.211 123.05 409.128 122.933 410.028 122.7C410.961 122.433 411.828 122.067 412.628 121.6C413.428 121.133 414.128 120.583 414.728 119.95C415.328 119.283 415.811 118.567 416.178 117.8L417.728 118.2C417.361 119.1 416.828 119.95 416.128 120.75C415.428 121.517 414.595 122.183 413.628 122.75C412.695 123.283 411.678 123.7 410.578 124C409.478 124.333 408.345 124.5 407.178 124.5ZM417.928 110.3C417.828 108.667 417.478 107.167 416.878 105.8C416.278 104.433 415.478 103.25 414.478 102.25C413.511 101.25 412.395 100.483 411.128 99.95C409.861 99.3833 408.495 99.1 407.028 99.1C405.561 99.1 404.195 99.3833 402.928 99.95C401.661 100.517 400.545 101.3 399.578 102.3C398.645 103.3 397.878 104.483 397.278 105.85C396.711 107.217 396.378 108.7 396.278 110.3H417.928ZM425.633 87.5H427.283V119.55C427.283 120.517 427.583 121.283 428.183 121.85C428.783 122.417 429.567 122.7 430.533 122.7C430.9 122.7 431.333 122.667 431.833 122.6C432.367 122.5 432.85 122.367 433.283 122.2L433.683 123.6C433.183 123.767 432.55 123.917 431.783 124.05C431.05 124.183 430.417 124.25 429.883 124.25C428.617 124.25 427.583 123.867 426.783 123.1C426.017 122.3 425.633 121.233 425.633 119.9V87.5ZM438.036 87.5H439.686V119.55C439.686 120.517 439.986 121.283 440.586 121.85C441.186 122.417 441.969 122.7 442.936 122.7C443.302 122.7 443.736 122.667 444.236 122.6C444.769 122.5 445.252 122.367 445.686 122.2L446.086 123.6C445.586 123.767 444.952 123.917 444.186 124.05C443.452 124.183 442.819 124.25 442.286 124.25C441.019 124.25 439.986 123.867 439.186 123.1C438.419 122.3 438.036 121.233 438.036 119.9V87.5ZM460.788 124.5C459.021 124.5 457.371 124.15 455.838 123.45C454.338 122.717 453.021 121.75 451.888 120.55C450.755 119.317 449.871 117.883 449.238 116.25C448.605 114.617 448.288 112.9 448.288 111.1C448.288 109.267 448.605 107.533 449.238 105.9C449.905 104.267 450.805 102.833 451.938 101.6C453.071 100.367 454.388 99.4 455.888 98.7C457.421 97.9667 459.055 97.6 460.788 97.6C462.521 97.6 464.155 97.9667 465.688 98.7C467.221 99.4 468.555 100.367 469.688 101.6C470.821 102.833 471.705 104.267 472.338 105.9C473.005 107.533 473.338 109.267 473.338 111.1C473.338 112.9 473.005 114.617 472.338 116.25C471.705 117.883 470.821 119.317 469.688 120.55C468.588 121.75 467.271 122.717 465.738 123.45C464.205 124.15 462.555 124.5 460.788 124.5ZM449.988 111.15C449.988 112.75 450.271 114.267 450.838 115.7C451.405 117.133 452.171 118.383 453.138 119.45C454.105 120.517 455.238 121.367 456.538 122C457.871 122.6 459.271 122.9 460.738 122.9C462.238 122.9 463.638 122.583 464.938 121.95C466.271 121.317 467.421 120.467 468.388 119.4C469.388 118.333 470.171 117.083 470.738 115.65C471.305 114.183 471.588 112.65 471.588 111.05C471.588 109.45 471.305 107.933 470.738 106.5C470.171 105.033 469.388 103.767 468.388 102.7C467.421 101.633 466.271 100.783 464.938 100.15C463.638 99.5167 462.255 99.2 460.788 99.2C459.321 99.2 457.938 99.5167 456.638 100.15C455.338 100.783 454.188 101.65 453.188 102.75C452.221 103.817 451.438 105.083 450.838 106.55C450.271 107.983 449.988 109.517 449.988 111.15ZM480.581 113.6V88.15H482.231V113.6H480.581ZM480.581 124V119.4H482.231V124H480.581Z" fill="#3D3D3D"/>
<path d="M362.23 195V145.3H367.13V195H362.23ZM378.333 158.53L379.523 151.11H377.843V143.9H382.533V151.11L380.783 158.53H378.333ZM446.193 195H441.433V174.63C441.433 170.383 440.757 167.257 439.403 165.25C438.05 163.243 436.043 162.24 433.383 162.24C431.983 162.24 430.653 162.497 429.393 163.01C428.18 163.523 427.037 164.247 425.963 165.18C424.937 166.113 424.027 167.233 423.233 168.54C422.44 169.8 421.833 171.2 421.413 172.74V195H416.653V174.63C416.653 170.29 416 167.14 414.693 165.18C413.387 163.22 411.38 162.24 408.673 162.24C405.92 162.24 403.47 163.197 401.323 165.11C399.177 167.023 397.637 169.543 396.703 172.67V195H391.943V158.53H396.283V166.79C397.777 163.99 399.737 161.82 402.163 160.28C404.59 158.693 407.273 157.9 410.213 157.9C413.293 157.9 415.743 158.763 417.563 160.49C419.43 162.217 420.573 164.48 420.993 167.28C424.4 161.027 429.09 157.9 435.063 157.9C437.117 157.9 438.843 158.273 440.243 159.02C441.69 159.767 442.833 160.84 443.673 162.24C444.56 163.593 445.19 165.25 445.563 167.21C445.983 169.123 446.193 171.27 446.193 173.65V195Z" fill="#3D3D3D"/>
<path d="M475.091 195V145.3H479.991V195H475.091ZM502.885 195.7C498.918 195.7 495.955 194.393 493.995 191.78C492.081 189.12 491.125 185.177 491.125 179.95V158.53H495.885V179.11C495.885 187.37 498.708 191.5 504.355 191.5C505.755 191.5 507.131 191.267 508.485 190.8C509.838 190.333 511.075 189.657 512.195 188.77C513.361 187.883 514.388 186.833 515.275 185.62C516.208 184.407 516.955 183.03 517.515 181.49V158.53H522.275V188.84C522.275 190.147 522.835 190.8 523.955 190.8V195C523.395 195.093 522.928 195.14 522.555 195.14C522.228 195.14 521.995 195.14 521.855 195.14C520.735 195.093 519.825 194.697 519.125 193.95C518.425 193.203 518.075 192.2 518.075 190.94V186.74C516.488 189.587 514.318 191.803 511.565 193.39C508.858 194.93 505.965 195.7 502.885 195.7ZM551.237 162.73C548.017 162.823 545.217 163.71 542.837 165.39C540.457 167.07 538.777 169.38 537.797 172.32V195H533.037V158.53H537.517V167.28C538.87 164.48 540.69 162.287 542.977 160.7C545.264 159.113 547.714 158.32 550.327 158.32C550.7 158.32 551.004 158.343 551.237 158.39V162.73ZM559.678 206.2C560.051 206.247 560.401 206.27 560.728 206.27C561.101 206.317 561.451 206.34 561.778 206.34C562.618 206.34 563.271 206.223 563.738 205.99C564.251 205.757 564.741 205.243 565.208 204.45C565.675 203.657 566.188 202.513 566.748 201.02C567.355 199.527 568.195 197.52 569.268 195L553.378 158.53H558.278L571.788 190.59L584.318 158.53H588.868L569.968 205.57C569.455 206.923 568.591 208.09 567.378 209.07C566.211 210.097 564.601 210.61 562.548 210.61C562.081 210.61 561.638 210.587 561.218 210.54C560.798 210.54 560.285 210.493 559.678 210.4V206.2ZM612.425 195V145.3H645.045V149.64H617.325V167.91H640.705V171.97H617.325V195H612.425ZM666.023 195.7C663.363 195.7 660.913 195.21 658.673 194.23C656.48 193.203 654.567 191.827 652.933 190.1C651.3 188.327 650.017 186.297 649.083 184.01C648.197 181.723 647.753 179.273 647.753 176.66C647.753 174.093 648.197 171.69 649.083 169.45C650.017 167.163 651.277 165.18 652.863 163.5C654.497 161.773 656.433 160.42 658.673 159.44C660.913 158.413 663.34 157.9 665.953 157.9C668.613 157.9 671.04 158.413 673.233 159.44C675.473 160.42 677.387 161.773 678.973 163.5C680.56 165.227 681.797 167.21 682.683 169.45C683.57 171.69 684.013 174.07 684.013 176.59C684.013 176.963 684.013 177.337 684.013 177.71C684.013 178.083 683.99 178.34 683.943 178.48H652.723C652.863 180.44 653.307 182.26 654.053 183.94C654.847 185.573 655.85 186.997 657.063 188.21C658.277 189.423 659.653 190.38 661.193 191.08C662.78 191.733 664.46 192.06 666.233 192.06C667.4 192.06 668.567 191.897 669.733 191.57C670.9 191.243 671.973 190.8 672.953 190.24C673.933 189.68 674.82 189.003 675.613 188.21C676.407 187.37 677.013 186.46 677.433 185.48L681.563 186.6C681.003 187.953 680.21 189.19 679.183 190.31C678.157 191.383 676.967 192.34 675.613 193.18C674.26 193.973 672.767 194.58 671.133 195C669.5 195.467 667.797 195.7 666.023 195.7ZM679.463 174.84C679.323 172.88 678.857 171.107 678.063 169.52C677.317 167.887 676.337 166.487 675.123 165.32C673.957 164.153 672.58 163.243 670.993 162.59C669.453 161.937 667.797 161.61 666.023 161.61C664.25 161.61 662.57 161.937 660.983 162.59C659.397 163.243 657.997 164.153 656.783 165.32C655.617 166.487 654.66 167.887 653.913 169.52C653.213 171.153 652.793 172.927 652.653 174.84H679.463ZM709.557 162.73C706.337 162.823 703.537 163.71 701.157 165.39C698.777 167.07 697.097 169.38 696.117 172.32V195H691.357V158.53H695.837V167.28C697.191 164.48 699.011 162.287 701.297 160.7C703.584 159.113 706.034 158.32 708.647 158.32C709.021 158.32 709.324 158.343 709.557 158.39V162.73ZM734.098 162.73C730.878 162.823 728.078 163.71 725.698 165.39C723.318 167.07 721.638 169.38 720.658 172.32V195H715.898V158.53H720.378V167.28C721.732 164.48 723.552 162.287 725.838 160.7C728.125 159.113 730.575 158.32 733.188 158.32C733.562 158.32 733.865 158.343 734.098 158.39V162.73ZM754.344 195.7C751.684 195.7 749.234 195.21 746.994 194.23C744.8 193.203 742.887 191.827 741.254 190.1C739.62 188.327 738.337 186.297 737.404 184.01C736.517 181.723 736.074 179.273 736.074 176.66C736.074 174.093 736.517 171.69 737.404 169.45C738.337 167.163 739.597 165.18 741.184 163.5C742.817 161.773 744.754 160.42 746.994 159.44C749.234 158.413 751.66 157.9 754.274 157.9C756.934 157.9 759.36 158.413 761.554 159.44C763.794 160.42 765.707 161.773 767.294 163.5C768.88 165.227 770.117 167.21 771.004 169.45C771.89 171.69 772.334 174.07 772.334 176.59C772.334 176.963 772.334 177.337 772.334 177.71C772.334 178.083 772.31 178.34 772.264 178.48H741.044C741.184 180.44 741.627 182.26 742.374 183.94C743.167 185.573 744.17 186.997 745.384 188.21C746.597 189.423 747.974 190.38 749.514 191.08C751.1 191.733 752.78 192.06 754.554 192.06C755.72 192.06 756.887 191.897 758.054 191.57C759.22 191.243 760.294 190.8 761.274 190.24C762.254 189.68 763.14 189.003 763.934 188.21C764.727 187.37 765.334 186.46 765.754 185.48L769.884 186.6C769.324 187.953 768.53 189.19 767.504 190.31C766.477 191.383 765.287 192.34 763.934 193.18C762.58 193.973 761.087 194.58 759.454 195C757.82 195.467 756.117 195.7 754.344 195.7ZM767.784 174.84C767.644 172.88 767.177 171.107 766.384 169.52C765.637 167.887 764.657 166.487 763.444 165.32C762.277 164.153 760.9 163.243 759.314 162.59C757.774 161.937 756.117 161.61 754.344 161.61C752.57 161.61 750.89 161.937 749.304 162.59C747.717 163.243 746.317 164.153 745.104 165.32C743.937 166.487 742.98 167.887 742.234 169.52C741.534 171.153 741.114 172.927 740.974 174.84H767.784ZM779.678 195V158.53H784.438V195H779.678ZM779.678 150.9V143.9H784.438V150.9H779.678ZM813.122 162.73C809.902 162.823 807.102 163.71 804.722 165.39C802.342 167.07 800.662 169.38 799.682 172.32V195H794.922V158.53H799.402V167.28C800.755 164.48 802.575 162.287 804.862 160.7C807.149 159.113 809.599 158.32 812.212 158.32C812.585 158.32 812.889 158.343 813.122 158.39V162.73ZM828.154 195.7C826.428 195.7 824.818 195.42 823.324 194.86C821.878 194.253 820.594 193.437 819.474 192.41C818.401 191.383 817.561 190.193 816.954 188.84C816.348 187.44 816.044 185.947 816.044 184.36C816.044 182.773 816.418 181.303 817.164 179.95C817.911 178.597 818.961 177.43 820.314 176.45C821.668 175.47 823.278 174.723 825.144 174.21C827.011 173.65 829.064 173.37 831.304 173.37C833.171 173.37 835.061 173.533 836.974 173.86C838.888 174.187 840.591 174.653 842.084 175.26V171.97C842.084 168.75 841.174 166.207 839.354 164.34C837.534 162.427 835.014 161.47 831.794 161.47C829.928 161.47 828.014 161.843 826.054 162.59C824.094 163.337 822.111 164.41 820.104 165.81L818.424 162.66C823.138 159.487 827.711 157.9 832.144 157.9C836.718 157.9 840.311 159.183 842.924 161.75C845.538 164.317 846.844 167.863 846.844 172.39V188.84C846.844 190.147 847.428 190.8 848.594 190.8V195C847.801 195.14 847.194 195.21 846.774 195.21C845.561 195.21 844.604 194.907 843.904 194.3C843.251 193.693 842.901 192.853 842.854 191.78L842.714 188.91C841.034 191.103 838.911 192.783 836.344 193.95C833.824 195.117 831.094 195.7 828.154 195.7ZM829.274 192.06C831.748 192.06 834.011 191.593 836.064 190.66C838.164 189.727 839.751 188.49 840.824 186.95C841.244 186.53 841.548 186.087 841.734 185.62C841.968 185.107 842.084 184.64 842.084 184.22V178.27C840.498 177.663 838.841 177.197 837.114 176.87C835.434 176.543 833.708 176.38 831.934 176.38C828.574 176.38 825.844 177.08 823.744 178.48C821.644 179.88 820.594 181.723 820.594 184.01C820.594 185.13 820.804 186.18 821.224 187.16C821.691 188.14 822.298 189.003 823.044 189.75C823.838 190.45 824.771 191.01 825.844 191.43C826.918 191.85 828.061 192.06 829.274 192.06ZM856.429 195V188.14H860.559V195H856.429Z" fill="#4E829F"/>
<path d="M361.84 241.2C361.12 241.2 360.453 241.053 359.84 240.76C359.227 240.453 358.693 240.053 358.24 239.56C357.8 239.053 357.453 238.48 357.2 237.84C356.96 237.187 356.84 236.513 356.84 235.82C356.84 235.1 356.96 234.413 357.2 233.76C357.44 233.107 357.773 232.533 358.2 232.04C358.627 231.547 359.127 231.153 359.7 230.86C360.287 230.567 360.927 230.42 361.62 230.42C362.073 230.42 362.5 230.487 362.9 230.62C363.3 230.753 363.673 230.933 364.02 231.16C364.367 231.373 364.68 231.627 364.96 231.92C365.24 232.213 365.48 232.527 365.68 232.86V226.4H366.68V239.6C366.68 239.933 366.82 240.1 367.1 240.1V241C367.02 241.013 366.953 241.02 366.9 241.02C366.847 241.033 366.793 241.04 366.74 241.04C366.473 241.04 366.247 240.94 366.06 240.74C365.873 240.527 365.78 240.307 365.78 240.08V238.92C365.353 239.613 364.78 240.167 364.06 240.58C363.353 240.993 362.613 241.2 361.84 241.2ZM362.02 240.3C362.38 240.3 362.767 240.227 363.18 240.08C363.593 239.933 363.973 239.733 364.32 239.48C364.68 239.213 364.987 238.913 365.24 238.58C365.493 238.247 365.64 237.887 365.68 237.5V234.08C365.533 233.707 365.32 233.353 365.04 233.02C364.773 232.673 364.467 232.38 364.12 232.14C363.773 231.887 363.4 231.687 363 231.54C362.6 231.393 362.213 231.32 361.84 231.32C361.24 231.32 360.693 231.453 360.2 231.72C359.707 231.973 359.287 232.313 358.94 232.74C358.593 233.153 358.327 233.633 358.14 234.18C357.953 234.713 357.86 235.267 357.86 235.84C357.86 236.44 357.967 237.007 358.18 237.54C358.393 238.073 358.687 238.547 359.06 238.96C359.447 239.373 359.887 239.7 360.38 239.94C360.887 240.18 361.433 240.3 362.02 240.3ZM374.285 241.2C373.551 241.2 372.871 241.06 372.245 240.78C371.618 240.487 371.071 240.093 370.605 239.6C370.151 239.093 369.791 238.513 369.525 237.86C369.271 237.207 369.145 236.507 369.145 235.76C369.145 235.027 369.271 234.34 369.525 233.7C369.791 233.047 370.151 232.48 370.605 232C371.058 231.507 371.591 231.12 372.205 230.84C372.831 230.56 373.505 230.42 374.225 230.42C374.958 230.42 375.638 230.567 376.265 230.86C376.891 231.14 377.431 231.527 377.885 232.02C378.338 232.5 378.691 233.067 378.945 233.72C379.198 234.36 379.325 235.04 379.325 235.76C379.325 235.827 379.325 235.913 379.325 236.02C379.325 236.113 379.318 236.173 379.305 236.2H370.185C370.225 236.8 370.365 237.36 370.605 237.88C370.845 238.387 371.145 238.827 371.505 239.2C371.878 239.573 372.305 239.867 372.785 240.08C373.265 240.293 373.778 240.4 374.325 240.4C374.685 240.4 375.038 240.353 375.385 240.26C375.731 240.153 376.051 240.013 376.345 239.84C376.651 239.667 376.918 239.46 377.145 239.22C377.385 238.967 377.571 238.693 377.705 238.4L378.585 238.64C378.438 239.013 378.218 239.36 377.925 239.68C377.645 239.987 377.311 240.253 376.925 240.48C376.551 240.707 376.138 240.88 375.685 241C375.231 241.133 374.765 241.2 374.285 241.2ZM378.365 235.4C378.325 234.787 378.185 234.227 377.945 233.72C377.718 233.213 377.418 232.78 377.045 232.42C376.685 232.047 376.265 231.76 375.785 231.56C375.305 231.347 374.791 231.24 374.245 231.24C373.698 231.24 373.185 231.347 372.705 231.56C372.225 231.76 371.798 232.047 371.425 232.42C371.065 232.78 370.771 233.22 370.545 233.74C370.331 234.247 370.205 234.8 370.165 235.4H378.365ZM384.451 241L380.111 230.6H381.151L384.991 240L388.851 230.6H389.831L385.491 241H384.451ZM395.886 241.2C395.153 241.2 394.473 241.06 393.846 240.78C393.22 240.487 392.673 240.093 392.206 239.6C391.753 239.093 391.393 238.513 391.126 237.86C390.873 237.207 390.746 236.507 390.746 235.76C390.746 235.027 390.873 234.34 391.126 233.7C391.393 233.047 391.753 232.48 392.206 232C392.66 231.507 393.193 231.12 393.806 230.84C394.433 230.56 395.106 230.42 395.826 230.42C396.56 230.42 397.24 230.567 397.866 230.86C398.493 231.14 399.033 231.527 399.486 232.02C399.94 232.5 400.293 233.067 400.546 233.72C400.8 234.36 400.926 235.04 400.926 235.76C400.926 235.827 400.926 235.913 400.926 236.02C400.926 236.113 400.92 236.173 400.906 236.2H391.786C391.826 236.8 391.966 237.36 392.206 237.88C392.446 238.387 392.746 238.827 393.106 239.2C393.48 239.573 393.906 239.867 394.386 240.08C394.866 240.293 395.38 240.4 395.926 240.4C396.286 240.4 396.64 240.353 396.986 240.26C397.333 240.153 397.653 240.013 397.946 239.84C398.253 239.667 398.52 239.46 398.746 239.22C398.986 238.967 399.173 238.693 399.306 238.4L400.186 238.64C400.04 239.013 399.82 239.36 399.526 239.68C399.246 239.987 398.913 240.253 398.526 240.48C398.153 240.707 397.74 240.88 397.286 241C396.833 241.133 396.366 241.2 395.886 241.2ZM399.966 235.4C399.926 234.787 399.786 234.227 399.546 233.72C399.32 233.213 399.02 232.78 398.646 232.42C398.286 232.047 397.866 231.76 397.386 231.56C396.906 231.347 396.393 231.24 395.846 231.24C395.3 231.24 394.786 231.347 394.306 231.56C393.826 231.76 393.4 232.047 393.026 232.42C392.666 232.78 392.373 233.22 392.146 233.74C391.933 234.247 391.806 234.8 391.766 235.4H399.966ZM403.206 226.4H404.226V238.94C404.226 239.327 404.333 239.633 404.546 239.86C404.773 240.087 405.08 240.2 405.466 240.2C405.613 240.2 405.786 240.187 405.986 240.16C406.2 240.12 406.393 240.067 406.566 240L406.766 240.8C406.54 240.893 406.26 240.967 405.926 241.02C405.593 241.087 405.306 241.12 405.066 241.12C404.506 241.12 404.053 240.953 403.706 240.62C403.373 240.273 403.206 239.813 403.206 239.24V226.4ZM412.662 241.2C411.929 241.2 411.249 241.06 410.622 240.78C410.009 240.487 409.476 240.093 409.022 239.6C408.569 239.107 408.216 238.533 407.962 237.88C407.709 237.227 407.582 236.54 407.582 235.82C407.582 235.087 407.709 234.393 407.962 233.74C408.229 233.087 408.589 232.513 409.042 232.02C409.496 231.527 410.029 231.14 410.642 230.86C411.269 230.567 411.942 230.42 412.662 230.42C413.382 230.42 414.049 230.567 414.662 230.86C415.276 231.14 415.809 231.527 416.262 232.02C416.729 232.513 417.089 233.087 417.342 233.74C417.609 234.393 417.742 235.087 417.742 235.82C417.742 236.54 417.609 237.227 417.342 237.88C417.089 238.533 416.736 239.107 416.282 239.6C415.829 240.093 415.289 240.487 414.662 240.78C414.049 241.06 413.382 241.2 412.662 241.2ZM408.582 235.86C408.582 236.473 408.689 237.053 408.902 237.6C409.116 238.133 409.402 238.6 409.762 239C410.136 239.4 410.569 239.72 411.062 239.96C411.556 240.187 412.082 240.3 412.642 240.3C413.202 240.3 413.729 240.187 414.222 239.96C414.716 239.72 415.149 239.393 415.522 238.98C415.896 238.567 416.189 238.093 416.402 237.56C416.616 237.013 416.722 236.427 416.722 235.8C416.722 235.187 416.616 234.613 416.402 234.08C416.189 233.533 415.896 233.06 415.522 232.66C415.149 232.247 414.716 231.92 414.222 231.68C413.742 231.44 413.222 231.32 412.662 231.32C412.102 231.32 411.576 231.44 411.082 231.68C410.589 231.92 410.156 232.247 409.782 232.66C409.422 233.073 409.129 233.56 408.902 234.12C408.689 234.667 408.582 235.247 408.582 235.86ZM425.218 241.2C424.325 241.2 423.525 240.967 422.818 240.5C422.125 240.02 421.565 239.44 421.138 238.76V245.26H420.138V230.6H421.058V232.68C421.485 232.013 422.045 231.473 422.738 231.06C423.445 230.633 424.198 230.42 424.998 230.42C425.718 230.42 426.385 230.573 426.998 230.88C427.611 231.187 428.138 231.593 428.578 232.1C429.018 232.593 429.358 233.167 429.598 233.82C429.851 234.473 429.978 235.14 429.978 235.82C429.978 236.54 429.865 237.227 429.638 237.88C429.411 238.533 429.085 239.107 428.658 239.6C428.245 240.093 427.745 240.487 427.158 240.78C426.571 241.06 425.925 241.2 425.218 241.2ZM424.978 240.3C425.578 240.3 426.125 240.173 426.618 239.92C427.111 239.667 427.531 239.333 427.878 238.92C428.225 238.493 428.491 238.013 428.678 237.48C428.865 236.933 428.958 236.38 428.958 235.82C428.958 235.22 428.851 234.653 428.638 234.12C428.425 233.573 428.125 233.093 427.738 232.68C427.365 232.267 426.925 231.94 426.418 231.7C425.911 231.447 425.371 231.32 424.798 231.32C424.438 231.32 424.051 231.4 423.638 231.56C423.238 231.707 422.858 231.913 422.498 232.18C422.138 232.433 421.831 232.727 421.578 233.06C421.325 233.393 421.178 233.747 421.138 234.12V237.54C421.311 237.927 421.531 238.287 421.798 238.62C422.065 238.953 422.365 239.247 422.698 239.5C423.031 239.753 423.391 239.953 423.778 240.1C424.165 240.233 424.565 240.3 424.978 240.3ZM436.804 241.2C436.071 241.2 435.391 241.06 434.764 240.78C434.138 240.487 433.591 240.093 433.124 239.6C432.671 239.093 432.311 238.513 432.044 237.86C431.791 237.207 431.664 236.507 431.664 235.76C431.664 235.027 431.791 234.34 432.044 233.7C432.311 233.047 432.671 232.48 433.124 232C433.578 231.507 434.111 231.12 434.724 230.84C435.351 230.56 436.024 230.42 436.744 230.42C437.478 230.42 438.158 230.567 438.784 230.86C439.411 231.14 439.951 231.527 440.404 232.02C440.858 232.5 441.211 233.067 441.464 233.72C441.718 234.36 441.844 235.04 441.844 235.76C441.844 235.827 441.844 235.913 441.844 236.02C441.844 236.113 441.838 236.173 441.824 236.2H432.704C432.744 236.8 432.884 237.36 433.124 237.88C433.364 238.387 433.664 238.827 434.024 239.2C434.398 239.573 434.824 239.867 435.304 240.08C435.784 240.293 436.298 240.4 436.844 240.4C437.204 240.4 437.558 240.353 437.904 240.26C438.251 240.153 438.571 240.013 438.864 239.84C439.171 239.667 439.438 239.46 439.664 239.22C439.904 238.967 440.091 238.693 440.224 238.4L441.104 238.64C440.958 239.013 440.738 239.36 440.444 239.68C440.164 239.987 439.831 240.253 439.444 240.48C439.071 240.707 438.658 240.88 438.204 241C437.751 241.133 437.284 241.2 436.804 241.2ZM440.884 235.4C440.844 234.787 440.704 234.227 440.464 233.72C440.238 233.213 439.938 232.78 439.564 232.42C439.204 232.047 438.784 231.76 438.304 231.56C437.824 231.347 437.311 231.24 436.764 231.24C436.218 231.24 435.704 231.347 435.224 231.56C434.744 231.76 434.318 232.047 433.944 232.42C433.584 232.78 433.291 233.22 433.064 233.74C432.851 234.247 432.724 234.8 432.684 235.4H440.884ZM448.964 231.5C448.031 231.527 447.211 231.807 446.504 232.34C445.811 232.86 445.324 233.58 445.044 234.5V241H444.044V230.6H445.004V233.16C445.364 232.427 445.838 231.833 446.424 231.38C447.024 230.913 447.664 230.647 448.344 230.58C448.478 230.567 448.598 230.56 448.704 230.56C448.811 230.56 448.898 230.56 448.964 230.56V231.5ZM460.589 241.2C459.696 241.2 458.896 240.967 458.189 240.5C457.496 240.02 456.936 239.44 456.509 238.76V245.26H455.509V230.6H456.429V232.68C456.856 232.013 457.416 231.473 458.109 231.06C458.816 230.633 459.569 230.42 460.369 230.42C461.089 230.42 461.756 230.573 462.369 230.88C462.983 231.187 463.509 231.593 463.949 232.1C464.389 232.593 464.729 233.167 464.969 233.82C465.223 234.473 465.349 235.14 465.349 235.82C465.349 236.54 465.236 237.227 465.009 237.88C464.783 238.533 464.456 239.107 464.029 239.6C463.616 240.093 463.116 240.487 462.529 240.78C461.943 241.06 461.296 241.2 460.589 241.2ZM460.349 240.3C460.949 240.3 461.496 240.173 461.989 239.92C462.483 239.667 462.903 239.333 463.249 238.92C463.596 238.493 463.863 238.013 464.049 237.48C464.236 236.933 464.329 236.38 464.329 235.82C464.329 235.22 464.223 234.653 464.009 234.12C463.796 233.573 463.496 233.093 463.109 232.68C462.736 232.267 462.296 231.94 461.789 231.7C461.283 231.447 460.743 231.32 460.169 231.32C459.809 231.32 459.423 231.4 459.009 231.56C458.609 231.707 458.229 231.913 457.869 232.18C457.509 232.433 457.203 232.727 456.949 233.06C456.696 233.393 456.549 233.747 456.509 234.12V237.54C456.683 237.927 456.903 238.287 457.169 238.62C457.436 238.953 457.736 239.247 458.069 239.5C458.403 239.753 458.763 239.953 459.149 240.1C459.536 240.233 459.936 240.3 460.349 240.3ZM470.315 241.2C469.835 241.2 469.389 241.12 468.975 240.96C468.562 240.787 468.195 240.56 467.875 240.28C467.569 239.987 467.329 239.647 467.155 239.26C466.982 238.86 466.895 238.433 466.895 237.98C466.895 237.527 467.002 237.113 467.215 236.74C467.429 236.367 467.722 236.047 468.095 235.78C468.482 235.5 468.942 235.287 469.475 235.14C470.009 234.98 470.595 234.9 471.235 234.9C471.795 234.9 472.355 234.953 472.915 235.06C473.489 235.153 474.002 235.287 474.455 235.46V234.44C474.455 233.453 474.175 232.673 473.615 232.1C473.055 231.513 472.295 231.22 471.335 231.22C470.829 231.22 470.289 231.327 469.715 231.54C469.155 231.753 468.582 232.06 467.995 232.46L467.615 231.78C468.949 230.873 470.215 230.42 471.415 230.42C472.669 230.42 473.655 230.787 474.375 231.52C475.095 232.24 475.455 233.24 475.455 234.52V239.6C475.455 239.933 475.602 240.1 475.895 240.1V241C475.829 241.013 475.755 241.02 475.675 241.02C475.609 241.033 475.549 241.04 475.495 241.04C475.229 241.04 475.015 240.953 474.855 240.78C474.695 240.593 474.602 240.373 474.575 240.12V239.26C474.095 239.887 473.482 240.367 472.735 240.7C471.989 241.033 471.182 241.2 470.315 241.2ZM470.515 240.4C471.289 240.4 471.995 240.253 472.635 239.96C473.289 239.667 473.789 239.28 474.135 238.8C474.349 238.52 474.455 238.253 474.455 238V236.16C473.975 235.973 473.475 235.833 472.955 235.74C472.435 235.647 471.895 235.6 471.335 235.6C470.815 235.6 470.342 235.66 469.915 235.78C469.489 235.887 469.122 236.04 468.815 236.24C468.509 236.44 468.269 236.687 468.095 236.98C467.935 237.26 467.855 237.573 467.855 237.92C467.855 238.267 467.922 238.593 468.055 238.9C468.189 239.207 468.375 239.473 468.615 239.7C468.855 239.913 469.135 240.087 469.455 240.22C469.789 240.34 470.142 240.4 470.515 240.4ZM481.798 241.2C480.998 241.2 480.231 241.067 479.498 240.8C478.764 240.533 478.124 240.133 477.578 239.6L478.078 238.92C478.638 239.427 479.218 239.8 479.818 240.04C480.418 240.28 481.078 240.4 481.798 240.4C482.704 240.4 483.431 240.213 483.978 239.84C484.538 239.453 484.818 238.92 484.818 238.24C484.818 237.92 484.744 237.653 484.598 237.44C484.464 237.213 484.258 237.027 483.978 236.88C483.698 236.72 483.351 236.58 482.938 236.46C482.524 236.34 482.044 236.213 481.498 236.08C480.911 235.947 480.398 235.813 479.958 235.68C479.531 235.547 479.178 235.387 478.898 235.2C478.618 235.013 478.404 234.787 478.257 234.52C478.124 234.253 478.058 233.913 478.058 233.5C478.058 232.98 478.158 232.527 478.358 232.14C478.558 231.753 478.831 231.433 479.178 231.18C479.538 230.927 479.944 230.74 480.398 230.62C480.864 230.487 481.358 230.42 481.878 230.42C482.691 230.42 483.411 230.56 484.038 230.84C484.664 231.107 485.151 231.453 485.498 231.88L484.938 232.42C484.591 232.02 484.138 231.72 483.578 231.52C483.031 231.32 482.444 231.22 481.818 231.22C481.431 231.22 481.064 231.26 480.718 231.34C480.384 231.42 480.091 231.547 479.838 231.72C479.584 231.893 479.384 232.12 479.238 232.4C479.091 232.667 479.018 232.987 479.018 233.36C479.018 233.667 479.064 233.913 479.158 234.1C479.264 234.287 479.424 234.447 479.638 234.58C479.864 234.713 480.151 234.833 480.498 234.94C480.844 235.033 481.258 235.14 481.738 235.26C482.391 235.42 482.971 235.573 483.478 235.72C483.984 235.867 484.404 236.047 484.738 236.26C485.084 236.473 485.344 236.727 485.518 237.02C485.704 237.313 485.798 237.687 485.798 238.14C485.798 239.073 485.431 239.82 484.698 240.38C483.978 240.927 483.011 241.2 481.798 241.2ZM491.426 241.2C490.626 241.2 489.86 241.067 489.126 240.8C488.393 240.533 487.753 240.133 487.206 239.6L487.706 238.92C488.266 239.427 488.846 239.8 489.446 240.04C490.046 240.28 490.706 240.4 491.426 240.4C492.333 240.4 493.06 240.213 493.606 239.84C494.166 239.453 494.446 238.92 494.446 238.24C494.446 237.92 494.373 237.653 494.226 237.44C494.093 237.213 493.886 237.027 493.606 236.88C493.326 236.72 492.98 236.58 492.566 236.46C492.153 236.34 491.673 236.213 491.126 236.08C490.54 235.947 490.026 235.813 489.586 235.68C489.16 235.547 488.806 235.387 488.526 235.2C488.246 235.013 488.033 234.787 487.886 234.52C487.753 234.253 487.686 233.913 487.686 233.5C487.686 232.98 487.786 232.527 487.986 232.14C488.186 231.753 488.46 231.433 488.806 231.18C489.166 230.927 489.573 230.74 490.026 230.62C490.493 230.487 490.986 230.42 491.506 230.42C492.32 230.42 493.04 230.56 493.666 230.84C494.293 231.107 494.78 231.453 495.126 231.88L494.566 232.42C494.22 232.02 493.766 231.72 493.206 231.52C492.66 231.32 492.073 231.22 491.446 231.22C491.06 231.22 490.693 231.26 490.346 231.34C490.013 231.42 489.72 231.547 489.466 231.72C489.213 231.893 489.013 232.12 488.866 232.4C488.72 232.667 488.646 232.987 488.646 233.36C488.646 233.667 488.693 233.913 488.786 234.1C488.893 234.287 489.053 234.447 489.266 234.58C489.493 234.713 489.78 234.833 490.126 234.94C490.473 235.033 490.886 235.14 491.366 235.26C492.02 235.42 492.6 235.573 493.106 235.72C493.613 235.867 494.033 236.047 494.366 236.26C494.713 236.473 494.973 236.727 495.146 237.02C495.333 237.313 495.426 237.687 495.426 238.14C495.426 239.073 495.06 239.82 494.326 240.38C493.606 240.927 492.64 241.2 491.426 241.2ZM497.755 241V230.6H498.755V241H497.755ZM497.755 228.24V226.4H498.755V228.24H497.755ZM506.256 241.2C505.523 241.2 504.843 241.06 504.216 240.78C503.603 240.487 503.069 240.093 502.616 239.6C502.163 239.107 501.809 238.533 501.556 237.88C501.303 237.227 501.176 236.54 501.176 235.82C501.176 235.087 501.303 234.393 501.556 233.74C501.823 233.087 502.183 232.513 502.636 232.02C503.089 231.527 503.623 231.14 504.236 230.86C504.863 230.567 505.536 230.42 506.256 230.42C506.976 230.42 507.643 230.567 508.256 230.86C508.869 231.14 509.403 231.527 509.856 232.02C510.323 232.513 510.683 233.087 510.936 233.74C511.203 234.393 511.336 235.087 511.336 235.82C511.336 236.54 511.203 237.227 510.936 237.88C510.683 238.533 510.329 239.107 509.876 239.6C509.423 240.093 508.883 240.487 508.256 240.78C507.643 241.06 506.976 241.2 506.256 241.2ZM502.176 235.86C502.176 236.473 502.283 237.053 502.496 237.6C502.709 238.133 502.996 238.6 503.356 239C503.729 239.4 504.163 239.72 504.656 239.96C505.149 240.187 505.676 240.3 506.236 240.3C506.796 240.3 507.323 240.187 507.816 239.96C508.309 239.72 508.743 239.393 509.116 238.98C509.489 238.567 509.783 238.093 509.996 237.56C510.209 237.013 510.316 236.427 510.316 235.8C510.316 235.187 510.209 234.613 509.996 234.08C509.783 233.533 509.489 233.06 509.116 232.66C508.743 232.247 508.309 231.92 507.816 231.68C507.336 231.44 506.816 231.32 506.256 231.32C505.696 231.32 505.169 231.44 504.676 231.68C504.183 231.92 503.749 232.247 503.376 232.66C503.016 233.073 502.723 233.56 502.496 234.12C502.283 234.667 502.176 235.247 502.176 235.86ZM522.232 241H521.232V235.2C521.232 233.853 521.039 232.873 520.652 232.26C520.279 231.647 519.679 231.34 518.852 231.34C518.412 231.34 517.972 231.42 517.532 231.58C517.105 231.74 516.705 231.967 516.332 232.26C515.959 232.553 515.632 232.9 515.352 233.3C515.072 233.687 514.865 234.107 514.732 234.56V241H513.732V230.6H514.672V233.08C514.885 232.68 515.145 232.32 515.452 232C515.772 231.667 516.125 231.387 516.512 231.16C516.912 230.92 517.332 230.74 517.772 230.62C518.212 230.487 518.665 230.42 519.132 230.42C520.265 230.42 521.065 230.82 521.532 231.62C521.999 232.407 522.232 233.54 522.232 235.02V241ZM527.815 241.2C527.335 241.2 526.889 241.12 526.475 240.96C526.062 240.787 525.695 240.56 525.375 240.28C525.069 239.987 524.829 239.647 524.655 239.26C524.482 238.86 524.395 238.433 524.395 237.98C524.395 237.527 524.502 237.113 524.715 236.74C524.929 236.367 525.222 236.047 525.595 235.78C525.982 235.5 526.442 235.287 526.975 235.14C527.509 234.98 528.095 234.9 528.735 234.9C529.295 234.9 529.855 234.953 530.415 235.06C530.989 235.153 531.502 235.287 531.955 235.46V234.44C531.955 233.453 531.675 232.673 531.115 232.1C530.555 231.513 529.795 231.22 528.835 231.22C528.329 231.22 527.789 231.327 527.215 231.54C526.655 231.753 526.082 232.06 525.495 232.46L525.115 231.78C526.449 230.873 527.715 230.42 528.915 230.42C530.169 230.42 531.155 230.787 531.875 231.52C532.595 232.24 532.955 233.24 532.955 234.52V239.6C532.955 239.933 533.102 240.1 533.395 240.1V241C533.329 241.013 533.255 241.02 533.175 241.02C533.109 241.033 533.049 241.04 532.995 241.04C532.729 241.04 532.515 240.953 532.355 240.78C532.195 240.593 532.102 240.373 532.075 240.12V239.26C531.595 239.887 530.982 240.367 530.235 240.7C529.489 241.033 528.682 241.2 527.815 241.2ZM528.015 240.4C528.789 240.4 529.495 240.253 530.135 239.96C530.789 239.667 531.289 239.28 531.635 238.8C531.849 238.52 531.955 238.253 531.955 238V236.16C531.475 235.973 530.975 235.833 530.455 235.74C529.935 235.647 529.395 235.6 528.835 235.6C528.315 235.6 527.842 235.66 527.415 235.78C526.989 235.887 526.622 236.04 526.315 236.24C526.009 236.44 525.769 236.687 525.595 236.98C525.435 237.26 525.355 237.573 525.355 237.92C525.355 238.267 525.422 238.593 525.555 238.9C525.689 239.207 525.875 239.473 526.115 239.7C526.355 239.913 526.635 240.087 526.955 240.22C527.289 240.34 527.642 240.4 528.015 240.4ZM540.559 240.5C540.506 240.527 540.413 240.58 540.279 240.66C540.159 240.727 539.999 240.793 539.799 240.86C539.613 240.927 539.399 240.987 539.159 241.04C538.919 241.093 538.659 241.12 538.379 241.12C538.099 241.12 537.833 241.08 537.579 241C537.339 240.92 537.126 240.8 536.939 240.64C536.753 240.48 536.606 240.287 536.499 240.06C536.393 239.833 536.339 239.567 536.339 239.26V231.42H534.879V230.6H536.339V227.04H537.339V230.6H539.759V231.42H537.339V239.02C537.339 239.407 537.473 239.7 537.739 239.9C538.006 240.087 538.306 240.18 538.639 240.18C539.053 240.18 539.406 240.113 539.699 239.98C540.006 239.833 540.193 239.74 540.259 239.7L540.559 240.5ZM546.492 241.2C545.758 241.2 545.078 241.06 544.452 240.78C543.825 240.487 543.278 240.093 542.812 239.6C542.358 239.093 541.998 238.513 541.732 237.86C541.478 237.207 541.352 236.507 541.352 235.76C541.352 235.027 541.478 234.34 541.732 233.7C541.998 233.047 542.358 232.48 542.812 232C543.265 231.507 543.798 231.12 544.412 230.84C545.038 230.56 545.712 230.42 546.432 230.42C547.165 230.42 547.845 230.567 548.472 230.86C549.098 231.14 549.638 231.527 550.092 232.02C550.545 232.5 550.898 233.067 551.152 233.72C551.405 234.36 551.532 235.04 551.532 235.76C551.532 235.827 551.532 235.913 551.532 236.02C551.532 236.113 551.525 236.173 551.512 236.2H542.392C542.432 236.8 542.572 237.36 542.812 237.88C543.052 238.387 543.352 238.827 543.712 239.2C544.085 239.573 544.512 239.867 544.992 240.08C545.472 240.293 545.985 240.4 546.532 240.4C546.892 240.4 547.245 240.353 547.592 240.26C547.938 240.153 548.258 240.013 548.552 239.84C548.858 239.667 549.125 239.46 549.352 239.22C549.592 238.967 549.778 238.693 549.912 238.4L550.792 238.64C550.645 239.013 550.425 239.36 550.132 239.68C549.852 239.987 549.518 240.253 549.132 240.48C548.758 240.707 548.345 240.88 547.892 241C547.438 241.133 546.972 241.2 546.492 241.2ZM550.572 235.4C550.532 234.787 550.392 234.227 550.152 233.72C549.925 233.213 549.625 232.78 549.252 232.42C548.892 232.047 548.472 231.76 547.992 231.56C547.512 231.347 546.998 231.24 546.452 231.24C545.905 231.24 545.392 231.347 544.912 231.56C544.432 231.76 544.005 232.047 543.632 232.42C543.272 232.78 542.978 233.22 542.752 233.74C542.538 234.247 542.412 234.8 542.372 235.4H550.572ZM561.429 241.2C560.949 241.2 560.502 241.12 560.089 240.96C559.675 240.787 559.309 240.56 558.989 240.28C558.682 239.987 558.442 239.647 558.269 239.26C558.095 238.86 558.009 238.433 558.009 237.98C558.009 237.527 558.115 237.113 558.329 236.74C558.542 236.367 558.835 236.047 559.209 235.78C559.595 235.5 560.055 235.287 560.589 235.14C561.122 234.98 561.709 234.9 562.349 234.9C562.909 234.9 563.469 234.953 564.029 235.06C564.602 235.153 565.115 235.287 565.569 235.46V234.44C565.569 233.453 565.289 232.673 564.729 232.1C564.169 231.513 563.409 231.22 562.449 231.22C561.942 231.22 561.402 231.327 560.829 231.54C560.269 231.753 559.695 232.06 559.109 232.46L558.729 231.78C560.062 230.873 561.329 230.42 562.529 230.42C563.782 230.42 564.769 230.787 565.489 231.52C566.209 232.24 566.569 233.24 566.569 234.52V239.6C566.569 239.933 566.715 240.1 567.009 240.1V241C566.942 241.013 566.869 241.02 566.789 241.02C566.722 241.033 566.662 241.04 566.609 241.04C566.342 241.04 566.129 240.953 565.969 240.78C565.809 240.593 565.715 240.373 565.689 240.12V239.26C565.209 239.887 564.595 240.367 563.849 240.7C563.102 241.033 562.295 241.2 561.429 241.2ZM561.629 240.4C562.402 240.4 563.109 240.253 563.749 239.96C564.402 239.667 564.902 239.28 565.249 238.8C565.462 238.52 565.569 238.253 565.569 238V236.16C565.089 235.973 564.589 235.833 564.069 235.74C563.549 235.647 563.009 235.6 562.449 235.6C561.929 235.6 561.455 235.66 561.029 235.78C560.602 235.887 560.235 236.04 559.929 236.24C559.622 236.44 559.382 236.687 559.209 236.98C559.049 237.26 558.969 237.573 558.969 237.92C558.969 238.267 559.035 238.593 559.169 238.9C559.302 239.207 559.489 239.473 559.729 239.7C559.969 239.913 560.249 240.087 560.569 240.22C560.902 240.34 561.255 240.4 561.629 240.4ZM574.471 241.2C573.657 241.2 572.897 240.987 572.191 240.56C571.484 240.133 570.931 239.587 570.531 238.92V241H569.611V226.4H570.611V232.86C571.104 232.14 571.684 231.553 572.351 231.1C573.031 230.647 573.811 230.42 574.691 230.42C575.424 230.42 576.084 230.58 576.671 230.9C577.271 231.207 577.771 231.62 578.171 232.14C578.584 232.647 578.897 233.227 579.111 233.88C579.337 234.52 579.451 235.173 579.451 235.84C579.451 236.56 579.324 237.247 579.071 237.9C578.817 238.54 578.464 239.107 578.011 239.6C577.571 240.08 577.044 240.467 576.431 240.76C575.831 241.053 575.177 241.2 574.471 241.2ZM574.271 240.3C574.884 240.3 575.444 240.173 575.951 239.92C576.457 239.667 576.891 239.333 577.251 238.92C577.624 238.493 577.911 238.013 578.111 237.48C578.324 236.947 578.431 236.4 578.431 235.84C578.431 235.253 578.331 234.693 578.131 234.16C577.944 233.613 577.671 233.133 577.311 232.72C576.964 232.293 576.544 231.953 576.051 231.7C575.571 231.447 575.037 231.32 574.451 231.32C574.011 231.32 573.597 231.4 573.211 231.56C572.824 231.707 572.464 231.907 572.131 232.16C571.811 232.413 571.517 232.707 571.251 233.04C570.997 233.373 570.784 233.72 570.611 234.08V237.52C570.651 237.907 570.797 238.273 571.051 238.62C571.304 238.953 571.604 239.247 571.951 239.5C572.311 239.74 572.697 239.933 573.111 240.08C573.524 240.227 573.911 240.3 574.271 240.3ZM586.217 241.2C585.484 241.2 584.804 241.06 584.177 240.78C583.564 240.487 583.03 240.093 582.577 239.6C582.124 239.107 581.77 238.533 581.517 237.88C581.264 237.227 581.137 236.54 581.137 235.82C581.137 235.087 581.264 234.393 581.517 233.74C581.784 233.087 582.144 232.513 582.597 232.02C583.05 231.527 583.584 231.14 584.197 230.86C584.824 230.567 585.497 230.42 586.217 230.42C586.937 230.42 587.604 230.567 588.217 230.86C588.83 231.14 589.364 231.527 589.817 232.02C590.284 232.513 590.644 233.087 590.897 233.74C591.164 234.393 591.297 235.087 591.297 235.82C591.297 236.54 591.164 237.227 590.897 237.88C590.644 238.533 590.29 239.107 589.837 239.6C589.384 240.093 588.844 240.487 588.217 240.78C587.604 241.06 586.937 241.2 586.217 241.2ZM582.137 235.86C582.137 236.473 582.244 237.053 582.457 237.6C582.67 238.133 582.957 238.6 583.317 239C583.69 239.4 584.124 239.72 584.617 239.96C585.11 240.187 585.637 240.3 586.197 240.3C586.757 240.3 587.284 240.187 587.777 239.96C588.27 239.72 588.704 239.393 589.077 238.98C589.45 238.567 589.744 238.093 589.957 237.56C590.17 237.013 590.277 236.427 590.277 235.8C590.277 235.187 590.17 234.613 589.957 234.08C589.744 233.533 589.45 233.06 589.077 232.66C588.704 232.247 588.27 231.92 587.777 231.68C587.297 231.44 586.777 231.32 586.217 231.32C585.657 231.32 585.13 231.44 584.637 231.68C584.144 231.92 583.71 232.247 583.337 232.66C582.977 233.073 582.684 233.56 582.457 234.12C582.244 234.667 582.137 235.247 582.137 235.86ZM596.913 241.2C594.699 241.2 593.593 239.667 593.593 236.6V230.6H594.593V236.46C594.593 239.02 595.466 240.3 597.213 240.3C597.653 240.3 598.079 240.227 598.493 240.08C598.906 239.92 599.293 239.707 599.653 239.44C600.013 239.16 600.326 238.827 600.593 238.44C600.873 238.053 601.093 237.627 601.253 237.16V230.6H602.253V239.6C602.253 239.933 602.393 240.1 602.673 240.1V241C602.606 241.013 602.546 241.02 602.493 241.02C602.439 241.02 602.399 241.02 602.373 241.02C602.106 241.02 601.866 240.94 601.653 240.78C601.453 240.607 601.353 240.38 601.353 240.1V238.54C600.899 239.38 600.273 240.033 599.473 240.5C598.686 240.967 597.833 241.2 596.913 241.2ZM610.071 240.5C610.018 240.527 609.924 240.58 609.791 240.66C609.671 240.727 609.511 240.793 609.311 240.86C609.124 240.927 608.911 240.987 608.671 241.04C608.431 241.093 608.171 241.12 607.891 241.12C607.611 241.12 607.344 241.08 607.091 241C606.851 240.92 606.638 240.8 606.451 240.64C606.264 240.48 606.118 240.287 606.011 240.06C605.904 239.833 605.851 239.567 605.851 239.26V231.42H604.391V230.6H605.851V227.04H606.851V230.6H609.271V231.42H606.851V239.02C606.851 239.407 606.984 239.7 607.251 239.9C607.518 240.087 607.818 240.18 608.151 240.18C608.564 240.18 608.918 240.113 609.211 239.98C609.518 239.833 609.704 239.74 609.771 239.7L610.071 240.5ZM621.834 241.2C621.021 241.2 620.261 240.987 619.554 240.56C618.847 240.133 618.294 239.587 617.894 238.92V241H616.974V226.4H617.974V232.86C618.467 232.14 619.047 231.553 619.714 231.1C620.394 230.647 621.174 230.42 622.054 230.42C622.787 230.42 623.447 230.58 624.034 230.9C624.634 231.207 625.134 231.62 625.534 232.14C625.947 232.647 626.261 233.227 626.474 233.88C626.701 234.52 626.814 235.173 626.814 235.84C626.814 236.56 626.687 237.247 626.434 237.9C626.181 238.54 625.827 239.107 625.374 239.6C624.934 240.08 624.407 240.467 623.794 240.76C623.194 241.053 622.541 241.2 621.834 241.2ZM621.634 240.3C622.247 240.3 622.807 240.173 623.314 239.92C623.821 239.667 624.254 239.333 624.614 238.92C624.987 238.493 625.274 238.013 625.474 237.48C625.687 236.947 625.794 236.4 625.794 235.84C625.794 235.253 625.694 234.693 625.494 234.16C625.307 233.613 625.034 233.133 624.674 232.72C624.327 232.293 623.907 231.953 623.414 231.7C622.934 231.447 622.401 231.32 621.814 231.32C621.374 231.32 620.961 231.4 620.574 231.56C620.187 231.707 619.827 231.907 619.494 232.16C619.174 232.413 618.881 232.707 618.614 233.04C618.361 233.373 618.147 233.72 617.974 234.08V237.52C618.014 237.907 618.161 238.273 618.414 238.62C618.667 238.953 618.967 239.247 619.314 239.5C619.674 239.74 620.061 239.933 620.474 240.08C620.887 240.227 621.274 240.3 621.634 240.3ZM631.78 241.2C631.3 241.2 630.853 241.12 630.44 240.96C630.027 240.787 629.66 240.56 629.34 240.28C629.033 239.987 628.793 239.647 628.62 239.26C628.447 238.86 628.36 238.433 628.36 237.98C628.36 237.527 628.467 237.113 628.68 236.74C628.893 236.367 629.187 236.047 629.56 235.78C629.947 235.5 630.407 235.287 630.94 235.14C631.473 234.98 632.06 234.9 632.7 234.9C633.26 234.9 633.82 234.953 634.38 235.06C634.953 235.153 635.467 235.287 635.92 235.46V234.44C635.92 233.453 635.64 232.673 635.08 232.1C634.52 231.513 633.76 231.22 632.8 231.22C632.293 231.22 631.753 231.327 631.18 231.54C630.62 231.753 630.047 232.06 629.46 232.46L629.08 231.78C630.413 230.873 631.68 230.42 632.88 230.42C634.133 230.42 635.12 230.787 635.84 231.52C636.56 232.24 636.92 233.24 636.92 234.52V239.6C636.92 239.933 637.067 240.1 637.36 240.1V241C637.293 241.013 637.22 241.02 637.14 241.02C637.073 241.033 637.013 241.04 636.96 241.04C636.693 241.04 636.48 240.953 636.32 240.78C636.16 240.593 636.067 240.373 636.04 240.12V239.26C635.56 239.887 634.947 240.367 634.2 240.7C633.453 241.033 632.647 241.2 631.78 241.2ZM631.98 240.4C632.753 240.4 633.46 240.253 634.1 239.96C634.753 239.667 635.253 239.28 635.6 238.8C635.813 238.52 635.92 238.253 635.92 238V236.16C635.44 235.973 634.94 235.833 634.42 235.74C633.9 235.647 633.36 235.6 632.8 235.6C632.28 235.6 631.807 235.66 631.38 235.78C630.953 235.887 630.587 236.04 630.28 236.24C629.973 236.44 629.733 236.687 629.56 236.98C629.4 237.26 629.32 237.573 629.32 237.92C629.32 238.267 629.387 238.593 629.52 238.9C629.653 239.207 629.84 239.473 630.08 239.7C630.32 239.913 630.6 240.087 630.92 240.22C631.253 240.34 631.607 240.4 631.98 240.4ZM639.242 235.76C639.242 235.027 639.369 234.333 639.622 233.68C639.876 233.027 640.229 232.46 640.682 231.98C641.136 231.5 641.676 231.12 642.302 230.84C642.929 230.56 643.616 230.42 644.362 230.42C645.309 230.42 646.142 230.633 646.862 231.06C647.582 231.487 648.122 232.08 648.482 232.84L647.502 233.16C647.196 232.587 646.756 232.14 646.182 231.82C645.622 231.487 645.002 231.32 644.322 231.32C643.749 231.32 643.216 231.433 642.722 231.66C642.229 231.887 641.796 232.2 641.422 232.6C641.062 233 640.776 233.473 640.562 234.02C640.349 234.553 640.242 235.133 640.242 235.76C640.242 236.387 640.349 236.98 640.562 237.54C640.789 238.087 641.082 238.567 641.442 238.98C641.816 239.38 642.249 239.7 642.742 239.94C643.249 240.18 643.782 240.3 644.342 240.3C644.702 240.3 645.056 240.247 645.402 240.14C645.762 240.033 646.089 239.893 646.382 239.72C646.689 239.547 646.949 239.347 647.162 239.12C647.389 238.88 647.542 238.633 647.622 238.38L648.602 238.66C648.469 239.02 648.262 239.36 647.982 239.68C647.716 239.987 647.396 240.253 647.022 240.48C646.649 240.707 646.236 240.88 645.782 241C645.329 241.133 644.862 241.2 644.382 241.2C643.649 241.2 642.969 241.06 642.342 240.78C641.716 240.487 641.169 240.093 640.702 239.6C640.249 239.093 639.889 238.513 639.622 237.86C639.369 237.207 639.242 236.507 639.242 235.76ZM658.381 241L654.321 235.44L651.861 237.7V241H650.861V226.4H651.861V236.6L658.181 230.62H659.341L655.001 234.84L659.481 241H658.381ZM665.183 241.2C664.45 241.2 663.77 241.06 663.143 240.78C662.516 240.487 661.97 240.093 661.503 239.6C661.05 239.093 660.69 238.513 660.423 237.86C660.17 237.207 660.043 236.507 660.043 235.76C660.043 235.027 660.17 234.34 660.423 233.7C660.69 233.047 661.05 232.48 661.503 232C661.956 231.507 662.49 231.12 663.103 230.84C663.73 230.56 664.403 230.42 665.123 230.42C665.856 230.42 666.536 230.567 667.163 230.86C667.79 231.14 668.33 231.527 668.783 232.02C669.236 232.5 669.59 233.067 669.843 233.72C670.096 234.36 670.223 235.04 670.223 235.76C670.223 235.827 670.223 235.913 670.223 236.02C670.223 236.113 670.216 236.173 670.203 236.2H661.083C661.123 236.8 661.263 237.36 661.503 237.88C661.743 238.387 662.043 238.827 662.403 239.2C662.776 239.573 663.203 239.867 663.683 240.08C664.163 240.293 664.676 240.4 665.223 240.4C665.583 240.4 665.936 240.353 666.283 240.26C666.63 240.153 666.95 240.013 667.243 239.84C667.55 239.667 667.816 239.46 668.043 239.22C668.283 238.967 668.47 238.693 668.603 238.4L669.483 238.64C669.336 239.013 669.116 239.36 668.823 239.68C668.543 239.987 668.21 240.253 667.823 240.48C667.45 240.707 667.036 240.88 666.583 241C666.13 241.133 665.663 241.2 665.183 241.2ZM669.263 235.4C669.223 234.787 669.083 234.227 668.843 233.72C668.616 233.213 668.316 232.78 667.943 232.42C667.583 232.047 667.163 231.76 666.683 231.56C666.203 231.347 665.69 231.24 665.143 231.24C664.596 231.24 664.083 231.347 663.603 231.56C663.123 231.76 662.696 232.047 662.323 232.42C661.963 232.78 661.67 233.22 661.443 233.74C661.23 234.247 661.103 234.8 661.063 235.4H669.263ZM680.923 241H679.923V235.2C679.923 233.853 679.73 232.873 679.343 232.26C678.97 231.647 678.37 231.34 677.543 231.34C677.103 231.34 676.663 231.42 676.223 231.58C675.797 231.74 675.397 231.967 675.023 232.26C674.65 232.553 674.323 232.9 674.043 233.3C673.763 233.687 673.557 234.107 673.423 234.56V241H672.423V230.6H673.363V233.08C673.577 232.68 673.837 232.32 674.143 232C674.463 231.667 674.817 231.387 675.203 231.16C675.603 230.92 676.023 230.74 676.463 230.62C676.903 230.487 677.357 230.42 677.823 230.42C678.957 230.42 679.757 230.82 680.223 231.62C680.69 232.407 680.923 233.54 680.923 235.02V241ZM688.227 241.2C687.507 241.2 686.84 241.053 686.227 240.76C685.613 240.453 685.08 240.053 684.627 239.56C684.187 239.053 683.84 238.48 683.587 237.84C683.347 237.187 683.227 236.513 683.227 235.82C683.227 235.1 683.347 234.413 683.587 233.76C683.827 233.107 684.16 232.533 684.587 232.04C685.013 231.547 685.513 231.153 686.087 230.86C686.673 230.567 687.313 230.42 688.007 230.42C688.46 230.42 688.887 230.487 689.287 230.62C689.687 230.753 690.06 230.933 690.407 231.16C690.753 231.373 691.067 231.627 691.347 231.92C691.627 232.213 691.867 232.527 692.067 232.86V226.4H693.067V239.6C693.067 239.933 693.207 240.1 693.487 240.1V241C693.407 241.013 693.34 241.02 693.287 241.02C693.233 241.033 693.18 241.04 693.127 241.04C692.86 241.04 692.633 240.94 692.447 240.74C692.26 240.527 692.167 240.307 692.167 240.08V238.92C691.74 239.613 691.167 240.167 690.447 240.58C689.74 240.993 689 241.2 688.227 241.2ZM688.407 240.3C688.767 240.3 689.153 240.227 689.567 240.08C689.98 239.933 690.36 239.733 690.707 239.48C691.067 239.213 691.373 238.913 691.627 238.58C691.88 238.247 692.027 237.887 692.067 237.5V234.08C691.92 233.707 691.707 233.353 691.427 233.02C691.16 232.673 690.853 232.38 690.507 232.14C690.16 231.887 689.787 231.687 689.387 231.54C688.987 231.393 688.6 231.32 688.227 231.32C687.627 231.32 687.08 231.453 686.587 231.72C686.093 231.973 685.673 232.313 685.327 232.74C684.98 233.153 684.713 233.633 684.527 234.18C684.34 234.713 684.247 235.267 684.247 235.84C684.247 236.44 684.353 237.007 684.567 237.54C684.78 238.073 685.073 238.547 685.447 238.96C685.833 239.373 686.273 239.7 686.767 239.94C687.273 240.18 687.82 240.3 688.407 240.3ZM705.668 241.2C704.948 241.2 704.281 241.053 703.668 240.76C703.055 240.453 702.521 240.053 702.068 239.56C701.628 239.053 701.281 238.48 701.028 237.84C700.788 237.187 700.668 236.513 700.668 235.82C700.668 235.1 700.788 234.413 701.028 233.76C701.268 233.107 701.601 232.533 702.028 232.04C702.455 231.547 702.955 231.153 703.528 230.86C704.115 230.567 704.755 230.42 705.448 230.42C705.901 230.42 706.328 230.487 706.728 230.62C707.128 230.753 707.501 230.933 707.848 231.16C708.195 231.373 708.508 231.627 708.788 231.92C709.068 232.213 709.308 232.527 709.508 232.86V226.4H710.508V239.6C710.508 239.933 710.648 240.1 710.928 240.1V241C710.848 241.013 710.781 241.02 710.728 241.02C710.675 241.033 710.621 241.04 710.568 241.04C710.301 241.04 710.075 240.94 709.888 240.74C709.701 240.527 709.608 240.307 709.608 240.08V238.92C709.181 239.613 708.608 240.167 707.888 240.58C707.181 240.993 706.441 241.2 705.668 241.2ZM705.848 240.3C706.208 240.3 706.595 240.227 707.008 240.08C707.421 239.933 707.801 239.733 708.148 239.48C708.508 239.213 708.815 238.913 709.068 238.58C709.321 238.247 709.468 237.887 709.508 237.5V234.08C709.361 233.707 709.148 233.353 708.868 233.02C708.601 232.673 708.295 232.38 707.948 232.14C707.601 231.887 707.228 231.687 706.828 231.54C706.428 231.393 706.041 231.32 705.668 231.32C705.068 231.32 704.521 231.453 704.028 231.72C703.535 231.973 703.115 232.313 702.768 232.74C702.421 233.153 702.155 233.633 701.968 234.18C701.781 234.713 701.688 235.267 701.688 235.84C701.688 236.44 701.795 237.007 702.008 237.54C702.221 238.073 702.515 238.547 702.888 238.96C703.275 239.373 703.715 239.7 704.208 239.94C704.715 240.18 705.261 240.3 705.848 240.3ZM718.113 241.2C717.379 241.2 716.699 241.06 716.073 240.78C715.446 240.487 714.899 240.093 714.433 239.6C713.979 239.093 713.619 238.513 713.353 237.86C713.099 237.207 712.973 236.507 712.973 235.76C712.973 235.027 713.099 234.34 713.353 233.7C713.619 233.047 713.979 232.48 714.433 232C714.886 231.507 715.419 231.12 716.033 230.84C716.659 230.56 717.333 230.42 718.053 230.42C718.786 230.42 719.466 230.567 720.093 230.86C720.719 231.14 721.259 231.527 721.713 232.02C722.166 232.5 722.519 233.067 722.773 233.72C723.026 234.36 723.153 235.04 723.153 235.76C723.153 235.827 723.153 235.913 723.153 236.02C723.153 236.113 723.146 236.173 723.133 236.2H714.013C714.053 236.8 714.193 237.36 714.433 237.88C714.673 238.387 714.973 238.827 715.333 239.2C715.706 239.573 716.133 239.867 716.613 240.08C717.093 240.293 717.606 240.4 718.153 240.4C718.513 240.4 718.866 240.353 719.213 240.26C719.559 240.153 719.879 240.013 720.173 239.84C720.479 239.667 720.746 239.46 720.973 239.22C721.213 238.967 721.399 238.693 721.533 238.4L722.413 238.64C722.266 239.013 722.046 239.36 721.753 239.68C721.473 239.987 721.139 240.253 720.753 240.48C720.379 240.707 719.966 240.88 719.513 241C719.059 241.133 718.593 241.2 718.113 241.2ZM722.193 235.4C722.153 234.787 722.013 234.227 721.773 233.72C721.546 233.213 721.246 232.78 720.873 232.42C720.513 232.047 720.093 231.76 719.613 231.56C719.133 231.347 718.619 231.24 718.073 231.24C717.526 231.24 717.013 231.347 716.533 231.56C716.053 231.76 715.626 232.047 715.253 232.42C714.893 232.78 714.599 233.22 714.373 233.74C714.159 234.247 714.033 234.8 713.993 235.4H722.193ZM728.28 241L723.94 230.6H724.98L728.82 240L732.68 230.6H733.66L729.32 241H728.28ZM739.714 241.2C738.981 241.2 738.301 241.06 737.674 240.78C737.048 240.487 736.501 240.093 736.034 239.6C735.581 239.093 735.221 238.513 734.954 237.86C734.701 237.207 734.574 236.507 734.574 235.76C734.574 235.027 734.701 234.34 734.954 233.7C735.221 233.047 735.581 232.48 736.034 232C736.488 231.507 737.021 231.12 737.634 230.84C738.261 230.56 738.934 230.42 739.654 230.42C740.388 230.42 741.068 230.567 741.694 230.86C742.321 231.14 742.861 231.527 743.314 232.02C743.768 232.5 744.121 233.067 744.374 233.72C744.628 234.36 744.754 235.04 744.754 235.76C744.754 235.827 744.754 235.913 744.754 236.02C744.754 236.113 744.748 236.173 744.734 236.2H735.614C735.654 236.8 735.794 237.36 736.034 237.88C736.274 238.387 736.574 238.827 736.934 239.2C737.308 239.573 737.734 239.867 738.214 240.08C738.694 240.293 739.208 240.4 739.754 240.4C740.114 240.4 740.468 240.353 740.814 240.26C741.161 240.153 741.481 240.013 741.774 239.84C742.081 239.667 742.348 239.46 742.574 239.22C742.814 238.967 743.001 238.693 743.134 238.4L744.014 238.64C743.868 239.013 743.648 239.36 743.354 239.68C743.074 239.987 742.741 240.253 742.354 240.48C741.981 240.707 741.568 240.88 741.114 241C740.661 241.133 740.194 241.2 739.714 241.2ZM743.794 235.4C743.754 234.787 743.614 234.227 743.374 233.72C743.148 233.213 742.848 232.78 742.474 232.42C742.114 232.047 741.694 231.76 741.214 231.56C740.734 231.347 740.221 231.24 739.674 231.24C739.128 231.24 738.614 231.347 738.134 231.56C737.654 231.76 737.228 232.047 736.854 232.42C736.494 232.78 736.201 233.22 735.974 233.74C735.761 234.247 735.634 234.8 735.594 235.4H743.794ZM747.035 226.4H748.055V238.94C748.055 239.327 748.161 239.633 748.375 239.86C748.601 240.087 748.908 240.2 749.295 240.2C749.441 240.2 749.615 240.187 749.815 240.16C750.028 240.12 750.221 240.067 750.395 240L750.595 240.8C750.368 240.893 750.088 240.967 749.755 241.02C749.421 241.087 749.135 241.12 748.895 241.12C748.335 241.12 747.881 240.953 747.535 240.62C747.201 240.273 747.035 239.813 747.035 239.24V226.4ZM756.49 241.2C755.757 241.2 755.077 241.06 754.45 240.78C753.837 240.487 753.304 240.093 752.85 239.6C752.397 239.107 752.044 238.533 751.79 237.88C751.537 237.227 751.41 236.54 751.41 235.82C751.41 235.087 751.537 234.393 751.79 233.74C752.057 233.087 752.417 232.513 752.87 232.02C753.324 231.527 753.857 231.14 754.47 230.86C755.097 230.567 755.77 230.42 756.49 230.42C757.21 230.42 757.877 230.567 758.49 230.86C759.104 231.14 759.637 231.527 760.09 232.02C760.557 232.513 760.917 233.087 761.17 233.74C761.437 234.393 761.57 235.087 761.57 235.82C761.57 236.54 761.437 237.227 761.17 237.88C760.917 238.533 760.564 239.107 760.11 239.6C759.657 240.093 759.117 240.487 758.49 240.78C757.877 241.06 757.21 241.2 756.49 241.2ZM752.41 235.86C752.41 236.473 752.517 237.053 752.73 237.6C752.944 238.133 753.23 238.6 753.59 239C753.964 239.4 754.397 239.72 754.89 239.96C755.384 240.187 755.91 240.3 756.47 240.3C757.03 240.3 757.557 240.187 758.05 239.96C758.544 239.72 758.977 239.393 759.35 238.98C759.724 238.567 760.017 238.093 760.23 237.56C760.444 237.013 760.55 236.427 760.55 235.8C760.55 235.187 760.444 234.613 760.23 234.08C760.017 233.533 759.724 233.06 759.35 232.66C758.977 232.247 758.544 231.92 758.05 231.68C757.57 231.44 757.05 231.32 756.49 231.32C755.93 231.32 755.404 231.44 754.91 231.68C754.417 231.92 753.984 232.247 753.61 232.66C753.25 233.073 752.957 233.56 752.73 234.12C752.517 234.667 752.41 235.247 752.41 235.86ZM769.046 241.2C768.153 241.2 767.353 240.967 766.646 240.5C765.953 240.02 765.393 239.44 764.966 238.76V245.26H763.966V230.6H764.886V232.68C765.313 232.013 765.873 231.473 766.566 231.06C767.273 230.633 768.026 230.42 768.826 230.42C769.546 230.42 770.213 230.573 770.826 230.88C771.44 231.187 771.966 231.593 772.406 232.1C772.846 232.593 773.186 233.167 773.426 233.82C773.68 234.473 773.806 235.14 773.806 235.82C773.806 236.54 773.693 237.227 773.466 237.88C773.24 238.533 772.913 239.107 772.486 239.6C772.073 240.093 771.573 240.487 770.986 240.78C770.4 241.06 769.753 241.2 769.046 241.2ZM768.806 240.3C769.406 240.3 769.953 240.173 770.446 239.92C770.94 239.667 771.36 239.333 771.706 238.92C772.053 238.493 772.32 238.013 772.506 237.48C772.693 236.933 772.786 236.38 772.786 235.82C772.786 235.22 772.68 234.653 772.466 234.12C772.253 233.573 771.953 233.093 771.566 232.68C771.193 232.267 770.753 231.94 770.246 231.7C769.74 231.447 769.2 231.32 768.626 231.32C768.266 231.32 767.88 231.4 767.466 231.56C767.066 231.707 766.686 231.913 766.326 232.18C765.966 232.433 765.66 232.727 765.406 233.06C765.153 233.393 765.006 233.747 764.966 234.12V237.54C765.14 237.927 765.36 238.287 765.626 238.62C765.893 238.953 766.193 239.247 766.526 239.5C766.86 239.753 767.22 239.953 767.606 240.1C767.993 240.233 768.393 240.3 768.806 240.3ZM791.492 241H790.492V235.2C790.492 233.88 790.286 232.907 789.872 232.28C789.472 231.653 788.852 231.34 788.012 231.34C787.586 231.34 787.179 231.42 786.792 231.58C786.406 231.74 786.052 231.967 785.732 232.26C785.412 232.54 785.132 232.88 784.892 233.28C784.666 233.667 784.486 234.1 784.352 234.58V241H783.352V235.2C783.352 233.867 783.152 232.893 782.752 232.28C782.352 231.653 781.732 231.34 780.892 231.34C780.466 231.34 780.059 231.42 779.672 231.58C779.299 231.727 778.952 231.947 778.632 232.24C778.312 232.52 778.026 232.86 777.772 233.26C777.532 233.647 777.346 234.08 777.212 234.56V241H776.212V230.6H777.152V233.08C777.579 232.24 778.139 231.587 778.832 231.12C779.526 230.653 780.292 230.42 781.132 230.42C782.012 230.42 782.726 230.68 783.272 231.2C783.819 231.72 784.146 232.4 784.252 233.24C785.239 231.36 786.599 230.42 788.332 230.42C789.466 230.42 790.272 230.827 790.752 231.64C791.246 232.44 791.492 233.567 791.492 235.02V241ZM798.933 241.2C798.2 241.2 797.52 241.06 796.893 240.78C796.266 240.487 795.72 240.093 795.253 239.6C794.8 239.093 794.44 238.513 794.173 237.86C793.92 237.207 793.793 236.507 793.793 235.76C793.793 235.027 793.92 234.34 794.173 233.7C794.44 233.047 794.8 232.48 795.253 232C795.706 231.507 796.24 231.12 796.853 230.84C797.48 230.56 798.153 230.42 798.873 230.42C799.606 230.42 800.286 230.567 800.913 230.86C801.54 231.14 802.08 231.527 802.533 232.02C802.986 232.5 803.34 233.067 803.593 233.72C803.846 234.36 803.973 235.04 803.973 235.76C803.973 235.827 803.973 235.913 803.973 236.02C803.973 236.113 803.966 236.173 803.953 236.2H794.833C794.873 236.8 795.013 237.36 795.253 237.88C795.493 238.387 795.793 238.827 796.153 239.2C796.526 239.573 796.953 239.867 797.433 240.08C797.913 240.293 798.426 240.4 798.973 240.4C799.333 240.4 799.686 240.353 800.033 240.26C800.38 240.153 800.7 240.013 800.993 239.84C801.3 239.667 801.566 239.46 801.793 239.22C802.033 238.967 802.22 238.693 802.353 238.4L803.233 238.64C803.086 239.013 802.866 239.36 802.573 239.68C802.293 239.987 801.96 240.253 801.573 240.48C801.2 240.707 800.786 240.88 800.333 241C799.88 241.133 799.413 241.2 798.933 241.2ZM803.013 235.4C802.973 234.787 802.833 234.227 802.593 233.72C802.366 233.213 802.066 232.78 801.693 232.42C801.333 232.047 800.913 231.76 800.433 231.56C799.953 231.347 799.44 231.24 798.893 231.24C798.346 231.24 797.833 231.347 797.353 231.56C796.873 231.76 796.446 232.047 796.073 232.42C795.713 232.78 795.42 233.22 795.193 233.74C794.98 234.247 794.853 234.8 794.813 235.4H803.013ZM814.673 241H813.673V235.2C813.673 233.853 813.48 232.873 813.093 232.26C812.72 231.647 812.12 231.34 811.293 231.34C810.853 231.34 810.413 231.42 809.973 231.58C809.547 231.74 809.147 231.967 808.773 232.26C808.4 232.553 808.073 232.9 807.793 233.3C807.513 233.687 807.307 234.107 807.173 234.56V241H806.173V230.6H807.113V233.08C807.327 232.68 807.587 232.32 807.893 232C808.213 231.667 808.567 231.387 808.953 231.16C809.353 230.92 809.773 230.74 810.213 230.62C810.653 230.487 811.107 230.42 811.573 230.42C812.707 230.42 813.507 230.82 813.973 231.62C814.44 232.407 814.673 233.54 814.673 235.02V241ZM822.239 240.5C822.186 240.527 822.092 240.58 821.959 240.66C821.839 240.727 821.679 240.793 821.479 240.86C821.292 240.927 821.079 240.987 820.839 241.04C820.599 241.093 820.339 241.12 820.059 241.12C819.779 241.12 819.512 241.08 819.259 241C819.019 240.92 818.806 240.8 818.619 240.64C818.432 240.48 818.286 240.287 818.179 240.06C818.072 239.833 818.019 239.567 818.019 239.26V231.42H816.559V230.6H818.019V227.04H819.019V230.6H821.439V231.42H819.019V239.02C819.019 239.407 819.152 239.7 819.419 239.9C819.686 240.087 819.986 240.18 820.319 240.18C820.732 240.18 821.086 240.113 821.379 239.98C821.686 239.833 821.872 239.74 821.939 239.7L822.239 240.5Z" fill="#4E829F"/>
<path d="M39.0699 202.237H125.26C122.26 195.697 116.79 191.687 110.89 191.687H43.89L39.0699 202.237Z" fill="#547E9E"/>
<path d="M24.5499 202.237H59.0699C56.0699 195.697 50.5999 191.687 44.6899 191.687H32.4699C26.5699 191.687 23.6399 195.097 24.5499 202.237V202.237Z" fill="#547E9E"/>
<path opacity="0.5" d="M24.5499 202.237H59.0699C56.0699 195.697 50.5999 191.687 44.6899 191.687H32.4699C26.5699 191.687 23.6399 195.097 24.5499 202.237V202.237Z" fill="#263238"/>
<path d="M85.35 293.497H77.87V202.237H69.66V293.497H62.18L54.12 300.957H69.66H77.87H93.41L85.35 293.497Z" fill="#547E9E"/>
<path opacity="0.7" d="M85.35 293.497H77.87V202.237H69.66V293.497H62.18L54.12 300.957H69.66H77.87H93.41L85.35 293.497Z" fill="white"/>
<path opacity="0.5" d="M77.8699 202.237H69.6599V205.297H77.8699V202.237Z" fill="#547E9E"/>
<path d="M131.47 290.947L140.44 288.677L138.31 267.157L129.34 269.427L131.47 290.947Z" fill="#B55B52"/>
<path d="M140.83 284.707L130.53 285.997C130.443 286.005 130.359 286.029 130.281 286.07C130.204 286.11 130.136 286.165 130.08 286.232C130.024 286.299 129.982 286.376 129.956 286.46C129.931 286.543 129.922 286.63 129.93 286.717L130.48 294.927C130.535 295.356 130.757 295.746 131.098 296.011C131.439 296.277 131.871 296.398 132.3 296.347C135.87 295.827 137.3 295.437 141.82 294.527C146.204 293.691 150.543 292.633 154.82 291.357C158.41 290.147 157.16 286.517 155.49 286.717C151.54 287.187 145.32 286.717 142.49 285.027C141.986 284.743 141.403 284.631 140.83 284.707V284.707Z" fill="#263238"/>
<path opacity="0.2" d="M129.34 269.437L138.32 267.167L139.34 277.527L130.33 279.487L129.34 269.437Z" fill="black"/>
<path d="M70.76 161.537C70.76 161.537 137.23 159.307 137.45 185.817C137.76 223.907 141.9 271.197 141.9 271.197L125.16 273.677C125.16 273.677 113.76 228.287 113.97 198.547C95.2799 193.267 46.74 196.707 41.02 181.217C36.35 168.537 38.79 161.537 38.79 161.537H70.76Z" fill="#263238"/>
<path opacity="0.3" d="M98.0099 169.707C98.0099 169.707 96.0099 184.867 102.92 196.557C106.652 196.943 110.349 197.611 113.98 198.557C113.975 201.447 114.128 204.334 114.44 207.207C125.56 190.617 116.46 171.797 98.0099 169.707Z" fill="black"/>
<path d="M123.86 278.077L143.25 274.427L143.57 266.907L122.05 270.697L123.86 278.077Z" fill="#547E9E"/>
<path d="M144.28 285.887C143.456 285.978 142.624 285.978 141.8 285.887C141.757 285.882 141.717 285.866 141.684 285.839C141.65 285.813 141.625 285.777 141.61 285.737C141.599 285.698 141.599 285.657 141.609 285.619C141.62 285.58 141.641 285.545 141.67 285.517C141.94 285.277 144.31 283.167 145.48 283.457C145.613 283.493 145.736 283.561 145.837 283.655C145.938 283.749 146.014 283.867 146.06 283.997C146.148 284.19 146.183 284.402 146.162 284.613C146.141 284.824 146.064 285.025 145.94 285.197C145.49 285.623 144.899 285.868 144.28 285.887V285.887ZM142.34 285.487C144.03 285.607 145.23 285.397 145.6 284.917C145.676 284.803 145.721 284.671 145.73 284.534C145.738 284.397 145.711 284.26 145.65 284.137C145.634 284.072 145.6 284.012 145.552 283.965C145.505 283.917 145.445 283.883 145.38 283.867C144.76 283.707 143.32 284.677 142.34 285.487Z" fill="#547E9E"/>
<path d="M141.85 285.877H141.76C141.726 285.864 141.697 285.842 141.674 285.814C141.651 285.786 141.636 285.753 141.63 285.717C141.63 285.607 141.06 282.997 141.87 281.987C141.974 281.856 142.106 281.75 142.257 281.677C142.407 281.605 142.573 281.567 142.74 281.567C142.922 281.552 143.105 281.598 143.258 281.697C143.412 281.797 143.529 281.944 143.59 282.117C143.93 283.117 142.81 285.177 141.97 285.847L141.85 285.877ZM142.62 281.997C142.534 282.008 142.45 282.035 142.375 282.078C142.299 282.121 142.233 282.178 142.18 282.247C141.7 282.847 141.82 284.367 141.96 285.247C142.67 284.467 143.39 282.897 143.17 282.247C143.12 282.127 143.03 281.987 142.72 281.987L142.62 281.997Z" fill="#547E9E"/>
<path d="M92.6799 292.927L101.85 291.757L103.35 269.997L94.1799 271.157L92.6799 292.927Z" fill="#B55B52"/>
<path d="M102.06 290.497L91.6799 290.167C91.5054 290.156 91.3334 290.214 91.2007 290.327C91.0681 290.441 90.9852 290.603 90.9699 290.777L90.2099 298.977C90.1964 299.409 90.3536 299.828 90.6476 300.145C90.9415 300.461 91.3484 300.649 91.7799 300.667C95.3899 300.717 97.1199 300.557 101.69 300.667C104.5 300.757 110.02 301.167 113.87 300.667C117.72 300.167 117.13 296.387 115.46 296.247C111.46 295.927 106.17 293.187 103.63 291.057C103.183 290.702 102.631 290.506 102.06 290.497V290.497Z" fill="#263238"/>
<path d="M105.28 292.207C104.45 292.164 103.628 292.027 102.83 291.797C102.791 291.786 102.755 291.764 102.727 291.734C102.699 291.704 102.679 291.667 102.67 291.627C102.665 291.586 102.672 291.545 102.69 291.508C102.708 291.471 102.735 291.439 102.77 291.417C103.07 291.217 105.77 289.517 106.86 289.987C106.986 290.044 107.096 290.131 107.18 290.241C107.264 290.351 107.319 290.48 107.34 290.617C107.396 290.821 107.396 291.035 107.342 291.239C107.288 291.443 107.18 291.629 107.03 291.777C106.52 292.131 105.896 292.284 105.28 292.207V292.207ZM103.43 291.507C105.07 291.887 106.29 291.877 106.74 291.457C106.834 291.357 106.9 291.234 106.93 291.1C106.96 290.967 106.953 290.827 106.91 290.697C106.904 290.631 106.88 290.567 106.842 290.513C106.803 290.458 106.751 290.415 106.69 290.387C106.09 290.127 104.53 290.857 103.43 291.507V291.507Z" fill="#547E9E"/>
<path d="M102.88 291.807C102.847 291.816 102.813 291.816 102.78 291.807C102.748 291.791 102.721 291.767 102.702 291.737C102.683 291.707 102.672 291.673 102.67 291.637C102.67 291.517 102.54 288.857 103.5 287.987C103.623 287.875 103.77 287.793 103.929 287.747C104.088 287.7 104.256 287.69 104.42 287.717C104.605 287.726 104.782 287.799 104.92 287.922C105.059 288.046 105.15 288.214 105.18 288.397C105.37 289.397 103.93 291.297 102.99 291.807C102.954 291.817 102.916 291.817 102.88 291.807V291.807ZM104.26 288.107C104.174 288.102 104.088 288.115 104.008 288.144C103.927 288.173 103.853 288.219 103.79 288.277C103.22 288.797 103.09 290.277 103.09 291.197C103.92 290.537 104.88 289.107 104.76 288.437C104.76 288.317 104.67 288.157 104.36 288.117L104.26 288.107Z" fill="#547E9E"/>
<path opacity="0.2" d="M94.18 271.167L103.35 269.997L102.49 282.447L93.35 283.157L94.18 271.167Z" fill="black"/>
<path d="M48.1499 161.537C48.1499 161.537 114.52 167.817 112.15 187.797C108.66 216.607 106.94 278.707 106.94 278.707L90.0199 279.377C90.0199 279.377 82.8499 223.377 86.5599 193.857C69.3899 193.857 27.3399 195.087 23.4999 184.737C20.1199 175.597 21.3299 161.537 21.3299 161.537H48.1499Z" fill="#263238"/>
<path d="M88.1099 280.417L108.42 279.407L109.15 270.577L86.8799 272.107L88.1099 280.417Z" fill="#547E9E"/>
<path d="M76.8399 101.827L77.4099 106.427C77.6099 107.987 77.8299 109.547 78.0699 111.097C78.5699 114.207 79.0699 117.307 79.6999 120.347C80.3299 123.387 81.0099 126.347 81.8299 129.247C82.5772 131.953 83.5817 134.582 84.8299 137.097C85.3034 138.047 85.8838 138.939 86.5599 139.757C86.6599 139.877 86.8699 140.077 87.0799 140.277C87.2899 140.477 87.5099 140.677 87.7299 140.877C88.1899 141.267 88.7299 141.667 89.2399 142.057C91.6184 143.706 94.1421 145.136 96.7799 146.327C102.495 148.883 108.351 151.11 114.32 152.997L113.24 159.857C109.815 159.742 106.402 159.408 103.02 158.857C101.34 158.597 99.6499 158.277 98.0199 157.857C96.3899 157.437 94.6399 157.057 92.9599 156.547C89.4181 155.55 85.9973 154.165 82.7599 152.417C81.8836 151.934 81.0325 151.407 80.2099 150.837C79.7899 150.537 79.3699 150.247 78.9499 149.897C78.494 149.55 78.0567 149.18 77.6399 148.787C76.0456 147.245 74.6604 145.5 73.5199 143.597C71.6254 140.366 70.0768 136.943 68.8999 133.387C67.7772 130.078 66.8259 126.714 66.0499 123.307C65.2899 119.957 64.6199 116.607 64.1299 113.247C63.8699 111.567 63.6399 109.887 63.4199 108.247C63.1999 106.607 63.0399 104.917 62.8999 103.087L76.8399 101.827Z" fill="#B55B52"/>
<path d="M62.8199 95.147C69.6099 88.597 77.9699 92.467 81.3099 104.747C83.201 111.33 84.4929 118.071 85.1699 124.887L63.6799 129.327C59.7599 117.607 55.8799 101.867 62.8199 95.147Z" fill="#547E9E"/>
<path opacity="0.3" d="M69.7599 108.557C68.2199 107.177 63.8599 113.367 61.1899 121.037C61.9499 123.897 62.8099 126.717 63.6799 129.337L76.61 126.657C75.57 118.997 73.1899 111.667 69.7599 108.557Z" fill="black"/>
<path d="M113 151.247L118.12 151.567L114.03 160.967C114.03 160.967 105.2 160.757 105.39 156.417L106.98 154.337C107.711 153.429 108.625 152.685 109.662 152.152C110.699 151.62 111.836 151.312 113 151.247V151.247Z" fill="#B55B52"/>
<path d="M123.7 152.327L119.28 160.967H114.03L118.12 151.567L123.7 152.327Z" fill="#B55B52"/>
<path d="M63.6199 88.577L53.3199 85.637L40.0799 84.997C38.0708 84.9044 36.0868 85.4735 34.4321 86.6169C32.7775 87.7603 31.5437 89.415 30.9199 91.327C28.3899 99.027 26.0699 110.177 24.3799 119.797C22.4799 130.577 21.4899 146.797 21.2899 161.527H70.7599C71.8899 130.797 75.7599 112.627 77.5299 102.527C77.8701 100.558 77.5567 98.531 76.6378 96.7562C75.7188 94.9814 74.2445 93.5559 72.4399 92.697L63.6199 88.577Z" fill="#547E9E"/>
<path opacity="0.3" d="M29.3399 96.667C27.4299 103.667 25.7099 112.237 24.3399 119.807C23.1104 127.534 22.2993 135.322 21.9099 143.137C30.0599 142.327 39.0599 132.947 41.9099 120.317C44.7599 107.997 38.1499 95.177 29.3399 96.667Z" fill="black"/>
<path d="M57.4299 68.907L61.4299 75.017L66.8799 83.347C66.1749 84.058 65.6056 84.8917 65.1999 85.807C64.1999 87.807 63.3799 89.317 67.5899 92.187C68.0447 92.4756 68.4059 92.89 68.6296 93.38C68.8533 93.87 68.9298 94.4144 68.8499 94.947C68.6099 96.247 67.3099 97.507 62.7599 96.707C58.3826 95.8655 54.3885 93.6477 51.3599 90.377C49.8399 88.867 50.1899 87.727 51.6499 86.157C55.7599 81.717 57.0199 74.627 57.4299 68.907Z" fill="#B55B52"/>
<path opacity="0.2" d="M65.5399 81.297L62.1999 75.357L61.9699 75.847C61.6741 76.5883 61.4335 77.3503 61.2499 78.127C60.6399 80.757 62.6899 84.527 64.9399 86.317L65.1999 85.807C65.5984 84.9511 66.1169 84.1564 66.7399 83.447C66.7815 83.4043 66.8286 83.3673 66.8799 83.337L65.5399 81.297Z" fill="black"/>
<path d="M64.01 104.817C63.9451 104.81 63.8844 104.781 63.8379 104.735C63.7914 104.69 63.7617 104.629 63.7536 104.565C63.7455 104.5 63.7595 104.434 63.7933 104.378C63.8271 104.323 63.8788 104.28 63.94 104.257L64.65 104.087C68.27 103.297 76.75 101.447 75.98 68.907C75.9799 68.8318 76.0091 68.7595 76.0613 68.7054C76.1136 68.6513 76.1848 68.6196 76.26 68.617V68.617C76.3352 68.617 76.4075 68.6462 76.4616 68.6984C76.5157 68.7507 76.5474 68.8219 76.55 68.897C77.33 101.897 68.55 103.827 64.77 104.647C64.52 104.647 64.29 104.747 64.09 104.807L64.01 104.817Z" fill="#263238"/>
<path d="M84.3299 59.847C82.8699 55.487 77.6299 58.387 77.6299 58.387C77.6299 58.387 77.5599 67.517 80.3699 69.857C83.1799 72.197 85.7599 64.247 84.3299 59.847Z" fill="#263238"/>
<path d="M58.84 58.087C57.23 67.147 55.84 72.347 59.19 78.157C60.2689 80.0439 61.8401 81.6022 63.7357 82.6657C65.6313 83.7291 67.7802 84.2578 69.9528 84.1951C72.1255 84.1325 74.2403 83.481 76.0715 82.3101C77.9027 81.1392 79.3815 79.4929 80.35 77.547C84.18 70.077 86.16 56.547 78.35 50.547C76.6972 49.2242 74.7263 48.358 72.6341 48.0352C70.5419 47.7124 68.4016 47.9441 66.4269 48.7072C64.4523 49.4703 62.7124 50.7382 61.3811 52.3841C60.0498 54.0301 59.1736 55.9965 58.84 58.087V58.087Z" fill="#B55B52"/>
<path d="M57.13 63.417C54.69 67.297 60.78 68.717 60.78 68.717C60.78 68.717 68.07 63.227 68.22 59.577C68.37 55.927 59.07 60.337 57.13 63.417Z" fill="#263238"/>
<path d="M54.76 64.877C53.56 63.877 52.24 60.067 53.25 56.717C54.26 53.367 57.48 49.717 60.38 50.907C61.46 47.817 76.3 44.017 81.26 50.907C87.04 58.957 84.01 63.097 79.2 59.977L70.4 57.127L54.76 64.877Z" fill="#263238"/>
<path d="M81.1299 59.247C78.7799 62.027 69.8699 61.397 69.8699 61.397L72.7899 58.197C70.8461 59.6365 68.4371 60.3029 66.0299 60.067C61.6599 59.817 64.0299 55.327 64.0299 55.327C64.0299 55.327 85.5499 53.997 81.1299 59.247Z" fill="#263238"/>
<path d="M53.9599 64.647C53.8719 66.6462 54.5234 68.6078 55.7899 70.157C57.4499 72.157 60.0099 70.557 60.6099 68.097C61.1399 65.887 60.4499 62.457 58.2699 61.397C56.0899 60.337 54.0699 62.167 53.9599 64.647Z" fill="#B55B52"/>
<path d="M53.0899 58.897C52.8632 57.3978 52.9553 55.8676 53.3603 54.4063C53.7652 52.9451 54.4739 51.5857 55.4399 50.417C54.6199 50.607 52.0499 49.097 56.7799 45.937C61.5099 42.777 71.3299 41.937 76.2199 44.347C85.7999 49.047 83.1499 54.607 83.1499 54.607L53.0899 58.897Z" fill="#547E9E"/>
<path opacity="0.3" d="M53.0899 58.897C52.8632 57.3978 52.9553 55.8676 53.3603 54.4063C53.7652 52.9451 54.4739 51.5857 55.4399 50.417C54.6199 50.607 52.0499 49.097 56.7799 45.937C61.5099 42.777 71.3299 41.937 76.2199 44.347C85.7999 49.047 83.1499 54.607 83.1499 54.607L53.0899 58.897Z" fill="black"/>
<path d="M53.2799 64.597C54.9399 64.657 56.5499 59.647 70.6199 57.117C76.2999 56.117 82.2499 57.917 83.9099 59.557C85.5699 61.197 84.7899 55.807 84.1899 53.877C83.5899 51.947 74.7999 50.407 69.0899 51.097C59.1799 52.287 53.2299 57.337 52.4099 58.607C51.5899 59.877 51.7599 64.557 53.2799 64.597Z" fill="#547E9E"/>
<path d="M58.4599 65.997C58.6496 66.3958 58.6797 66.8519 58.544 67.2721C58.4083 67.6923 58.117 68.0446 57.7299 68.257C56.9999 68.487 56.1399 67.867 55.8099 66.857C55.6202 66.4583 55.5901 66.0022 55.7258 65.582C55.8616 65.1618 56.1528 64.8094 56.5399 64.597C57.2699 64.367 58.1299 64.997 58.4599 65.997Z" fill="#263238"/>
<path d="M59.6399 160.537C57.9199 160.537 56.7799 160.077 56.1499 159.127C54.6099 156.827 56.5799 152.077 58.6699 147.047C60.6699 142.347 62.67 137.477 62.11 134.137C61.11 127.767 62.0299 119.727 62.9299 111.957C63.2299 109.397 63.51 106.957 63.72 104.637C59.85 100.637 55.9499 95.507 57.9999 84.947C59.3599 77.947 59.06 72.147 57.11 67.647C57.0935 67.6138 57.084 67.5775 57.0822 67.5404C57.0803 67.5033 57.0862 67.4663 57.0993 67.4315C57.1124 67.3968 57.1326 67.3652 57.1585 67.3386C57.1844 67.312 57.2156 67.291 57.2499 67.277C57.319 67.2462 57.3974 67.2436 57.4684 67.2697C57.5394 67.2959 57.5974 67.3487 57.6299 67.417C59.6299 72.037 59.9399 77.967 58.5599 85.057C56.5599 95.427 60.42 100.447 64.22 104.327C64.2723 104.392 64.2974 104.474 64.2899 104.557C64.0799 106.947 63.7999 109.417 63.4899 112.027C62.5999 119.757 61.6699 127.757 62.6699 134.027C63.2299 137.527 61.1799 142.467 59.1899 147.247C57.1999 152.027 55.2499 156.747 56.6199 158.797C57.1399 159.577 58.1299 159.957 59.6199 159.957C59.6942 159.957 59.7654 159.987 59.8179 160.039C59.8704 160.092 59.8999 160.163 59.8999 160.237C59.8999 160.311 59.8704 160.383 59.8179 160.435C59.7654 160.488 59.6942 160.517 59.6199 160.517L59.6399 160.537Z" fill="#263238"/>
<path d="M72.6499 66.467C72.4199 67.177 72.6499 67.887 73.0599 68.057C73.4699 68.227 74.0599 67.787 74.2999 67.057C74.5399 66.327 74.3599 65.637 73.8999 65.467C73.4399 65.297 72.8799 65.757 72.6499 66.467Z" fill="#263238"/>
<path d="M82.2271 69.9145C82.4413 69.2003 82.2374 68.5082 81.7719 68.3687C81.3064 68.2291 80.7554 68.6949 80.5413 69.409C80.3272 70.1232 80.5309 70.8153 80.9965 70.9549C81.462 71.0945 82.013 70.6287 82.2271 69.9145Z" fill="#263238"/>
<path d="M77.85 68.997C77.8173 71.1106 78.0662 73.2191 78.59 75.267C77.17 75.787 75.59 74.557 75.59 74.557L77.85 68.997Z" fill="#A02724"/>
<path d="M73.6099 78.447C72.7905 78.1728 72.0345 77.7367 71.3869 77.1647C70.7393 76.5927 70.2132 75.8963 69.8399 75.117C69.8199 75.0639 69.8212 75.0051 69.8436 74.9529C69.866 74.9007 69.9076 74.8592 69.9599 74.837C69.9868 74.8256 70.0157 74.8197 70.0449 74.8195C70.0741 74.8194 70.1031 74.8251 70.1301 74.8362C70.1571 74.8474 70.1816 74.8638 70.2021 74.8846C70.2227 74.9053 70.2389 74.93 70.2499 74.957C70.6647 75.7988 71.2672 76.534 72.011 77.1062C72.7547 77.6783 73.6199 78.072 74.5399 78.257C74.5969 78.2691 74.6468 78.3032 74.6786 78.3519C74.7105 78.4007 74.7217 78.46 74.7099 78.517C74.6979 78.574 74.6638 78.6239 74.615 78.6558C74.5663 78.6876 74.5069 78.6989 74.4499 78.687C74.1654 78.6236 73.8849 78.5435 73.6099 78.447V78.447Z" fill="#263238"/>
<path d="M71.92 63.407C71.8551 63.371 71.8001 63.3195 71.76 63.257C71.729 63.2087 71.7081 63.1546 71.6983 63.098C71.6886 63.0414 71.6903 62.9834 71.7034 62.9275C71.7164 62.8716 71.7405 62.8188 71.7743 62.7724C71.8081 62.7259 71.8508 62.6867 71.9 62.657C72.4715 62.2724 73.1287 62.0338 73.8139 61.9623C74.4991 61.8909 75.1914 61.9886 75.83 62.247C75.8871 62.2686 75.9391 62.3018 75.9826 62.3445C76.0262 62.3872 76.0604 62.4385 76.0831 62.4952C76.1058 62.5518 76.1164 62.6126 76.1143 62.6736C76.1123 62.7345 76.0976 62.7944 76.0711 62.8494C76.0447 62.9044 76.0071 62.9533 75.9607 62.993C75.9143 63.0326 75.8602 63.0623 75.8018 63.0799C75.7434 63.0975 75.682 63.1028 75.6214 63.0955C75.5608 63.0881 75.5025 63.0682 75.45 63.037C74.9462 62.8438 74.4033 62.7747 73.8672 62.8356C73.3311 62.8966 72.8176 63.0857 72.37 63.387C72.3034 63.4296 72.2267 63.4539 72.1477 63.4574C72.0687 63.4609 71.9901 63.4435 71.92 63.407V63.407Z" fill="#263238"/>
<path d="M82.1299 64.797C82.1103 64.725 82.1103 64.6491 82.1299 64.577C82.1742 64.4701 82.2589 64.3849 82.3656 64.34C82.4723 64.2951 82.5924 64.294 82.6999 64.337C83.3419 64.5872 83.9123 64.9919 84.3606 65.5152C84.8089 66.0385 85.1212 66.6642 85.2699 67.337C85.2721 67.443 85.236 67.5463 85.1681 67.6277C85.1003 67.7092 85.0053 67.7634 84.9007 67.7805C84.7961 67.7975 84.6888 67.7762 84.5986 67.7204C84.5084 67.6647 84.4414 67.5783 84.4099 67.477C84.2821 66.9506 84.029 66.4629 83.672 66.0555C83.3151 65.648 82.8649 65.3329 82.3599 65.137C82.2951 65.1056 82.2397 65.0576 82.1993 64.9979C82.1589 64.9382 82.135 64.8689 82.1299 64.797V64.797Z" fill="#263238"/>
<path d="M44.76 98.727C43.93 100.227 43.02 101.937 42.16 103.557C41.3 105.177 40.45 106.867 39.63 108.557C37.98 111.887 36.43 115.237 35.02 118.557C33.6405 121.808 32.4845 125.149 31.56 128.557C31.1661 130.054 30.8853 131.578 30.72 133.117C30.55 134.447 30.79 135.887 30.72 135.577C31.1894 136.382 31.8399 137.067 32.62 137.577C33.8722 138.508 35.2118 139.315 36.62 139.987C39.8527 141.537 43.195 142.847 46.62 143.907C50.08 144.997 53.76 145.997 57.37 146.997C60.98 147.997 64.79 148.777 68.43 149.577L67.75 156.487C59.7621 156.359 51.8012 155.526 43.96 153.997C39.8726 153.212 35.8584 152.085 31.96 150.627C29.8031 149.812 27.7301 148.791 25.77 147.577C23.2315 146.075 21.1101 143.961 19.6 141.427C19.1429 140.592 18.7774 139.71 18.51 138.797L18.32 138.107L18.21 137.567C18.12 137.197 18.07 136.857 18.01 136.497C17.8218 135.189 17.7382 133.868 17.76 132.547C17.812 130.224 18.0764 127.911 18.5499 125.637C19.4027 121.497 20.5934 117.433 22.11 113.487C23.54 109.647 25.17 105.947 26.92 102.327C27.8 100.514 28.71 98.7237 29.65 96.957C30.59 95.157 31.54 93.477 32.65 91.627L44.76 98.727Z" fill="#B55B52"/>
<path d="M37.1499 85.167C46.4699 83.747 51.0499 91.747 46.6699 103.687C44.3967 110.147 41.5451 116.389 38.1499 122.337L18.0599 113.527C21.6599 101.707 27.5899 86.617 37.1499 85.167Z" fill="#547E9E"/>
<path d="M69.2399 149.657L74.8199 151.567L67.4099 158.647C67.4099 158.647 58.3599 155.397 60.2099 151.467L62.4899 150.167C63.5161 149.613 64.6475 149.281 65.8106 149.193C66.9736 149.105 68.1422 149.263 69.2399 149.657V149.657Z" fill="#B55B52"/>
<path d="M81.3899 155.327L73.0199 160.257L67.4199 158.647L74.8199 151.567L81.3899 155.327Z" fill="#B55B52"/>
<path d="M213.05 160.677H5.42993V167.437H213.05V160.677Z" fill="#547E9E"/>
<path opacity="0.6" d="M213.05 160.677H5.42993V167.437H213.05V160.677Z" fill="white"/>
<path opacity="0.5" d="M5.41997 167.437H46.85V160.677H5.41997V167.437Z" fill="#547E9E"/>
<path d="M156.82 158.437H58.99C58.3967 158.44 57.8285 158.677 57.409 159.096C56.9895 159.516 56.7526 160.084 56.75 160.677H159.07C159.067 160.082 158.829 159.512 158.407 159.093C157.986 158.673 157.415 158.437 156.82 158.437V158.437Z" fill="#547E9E"/>
<path d="M169.76 112.667H102.91C102.482 112.689 102.071 112.843 101.734 113.108C101.398 113.373 101.152 113.736 101.03 114.147L90.03 155.387C89.9668 155.558 89.947 155.742 89.9725 155.922C89.998 156.103 90.0679 156.274 90.176 156.421C90.284 156.568 90.4269 156.685 90.5917 156.763C90.7564 156.841 90.938 156.877 91.12 156.867H158C158.429 156.854 158.843 156.703 159.18 156.436C159.516 156.17 159.758 155.802 159.87 155.387L170.87 114.147C170.934 113.974 170.954 113.789 170.927 113.606C170.901 113.424 170.829 113.252 170.719 113.104C170.608 112.957 170.463 112.84 170.295 112.763C170.128 112.687 169.944 112.654 169.76 112.667V112.667Z" fill="#547E9E"/>
<path opacity="0.2" d="M101.03 114.147L90.03 155.387C89.9668 155.558 89.947 155.742 89.9725 155.922C89.998 156.103 90.0679 156.274 90.176 156.421C90.284 156.568 90.4269 156.685 90.5917 156.763C90.7564 156.841 90.938 156.877 91.12 156.867L102.88 112.667C102.457 112.695 102.053 112.852 101.722 113.116C101.391 113.381 101.15 113.741 101.03 114.147Z" fill="black"/>
<path opacity="0.2" d="M87.54 158.437H58.99C58.3967 158.44 57.8285 158.677 57.409 159.096C56.9895 159.516 56.7526 160.084 56.75 160.677H89.75C89.7475 160.089 89.5148 159.525 89.1017 159.106C88.6886 158.688 88.128 158.448 87.54 158.437V158.437Z" fill="black"/>
<path d="M48.32 302.237H52.32L46.71 271.337H50.2V267.337H45.96L28.54 171.397H31.11V167.397H21.17V171.397H23.76L6.34 267.337H2.12V271.337H5.61L0 302.237H4L9.61 271.337H42.76L48.32 302.237ZM10.32 267.357L26.17 180.107L42.01 267.357H10.32Z" fill="#547E9E"/>
<path d="M213 298.557H217L211.39 271.337H214.88V267.337H210.66L193.24 171.397H195.76V167.397H185.82V171.397H188.39L170.97 267.337H166.76V271.337H170.25L164.64 298.557H168.64L174.25 271.337H207.39L213 298.557ZM175 267.357L190.84 180.107L206.69 267.357H175Z" fill="#547E9E"/>
<path d="M194.53 158.437H168.89C168.487 158.437 168.16 158.764 168.16 159.167V159.947C168.16 160.35 168.487 160.677 168.89 160.677H194.53C194.933 160.677 195.26 160.35 195.26 159.947V159.167C195.26 158.764 194.933 158.437 194.53 158.437Z" fill="#263238"/>
<path opacity="0.9" d="M123.36 104.937C123.177 104.94 122.996 104.903 122.828 104.83C122.661 104.758 122.511 104.65 122.388 104.515C122.265 104.38 122.172 104.22 122.116 104.046C122.059 103.872 122.04 103.689 122.06 103.507L126.17 57.267C126.211 56.8796 126.393 56.5206 126.68 56.2573C126.967 55.994 127.34 55.8446 127.73 55.837H184.01C184.193 55.8345 184.374 55.8709 184.541 55.9436C184.709 56.0164 184.859 56.124 184.982 56.2592C185.105 56.3944 185.198 56.5541 185.254 56.7279C185.311 56.9016 185.33 57.0854 185.31 57.267L181.2 103.507C181.159 103.894 180.977 104.254 180.69 104.517C180.403 104.78 180.029 104.929 179.64 104.937H123.36Z" fill="#263238"/>
<path d="M170.84 70.227H138.27L138.38 69.027H170.95L170.84 70.227Z" fill="white"/>
<path d="M175.95 72.147H141.45L141.55 70.9471H176.06L175.95 72.147Z" fill="#547E9E"/>
<path d="M169.87 74.067H141.28L141.38 72.867H169.97L169.87 74.067Z" fill="#547E9E"/>
<path d="M166.71 75.9871H141.11L141.21 74.787H166.82L166.71 75.9871Z" fill="#547E9E"/>
<path d="M158.65 79.117H137.49L137.59 77.907H158.75L158.65 79.117Z" fill="white"/>
<path d="M163.14 83.6671H140.42L140.32 84.8771H163.03L163.14 83.6671Z" fill="#547E9E"/>
<path d="M159.42 81.747H140.59L140.49 82.957H159.31L159.42 81.747Z" fill="#547E9E"/>
<path d="M161.5 79.8271H140.76L140.66 81.037H161.39L161.5 79.8271Z" fill="#547E9E"/>
<path d="M157.34 93.757H136.18L136.29 92.557H157.45L157.34 93.757Z" fill="white"/>
<path d="M161.84 98.317H139.12L139.01 99.517H161.73L161.84 98.317Z" fill="#547E9E"/>
<path d="M158.12 96.397H139.29L139.19 97.597H158.01L158.12 96.397Z" fill="#547E9E"/>
<path d="M160.2 94.4771H139.46L139.36 95.677H160.09L160.2 94.4771Z" fill="#547E9E"/>
<path d="M148.8 61.277H131.62L131.72 60.067H148.91L148.8 61.277Z" fill="white"/>
<path d="M152.38 65.8271H133.93L133.82 67.037H152.27L152.38 65.8271Z" fill="white"/>
<path d="M149.38 63.907H134.1L133.99 65.117H149.28L149.38 63.907Z" fill="white"/>
<path d="M151.1 61.9871H134.27L134.16 63.1971H151L151.1 61.9871Z" fill="white"/>
<path d="M162.63 89.427H139.91L139.8 90.637H162.52L162.63 89.427Z" fill="#547E9E"/>
<path d="M158.91 87.507H140.08L139.97 88.7171H158.8L158.91 87.507Z" fill="#547E9E"/>
<path d="M160.99 85.587H140.25L140.15 86.797H160.88L160.99 85.587Z" fill="#547E9E"/>
<path d="M202.48 49.4171H164.97C164.639 49.4218 164.31 49.3562 164.006 49.2245C163.702 49.0929 163.43 48.8982 163.207 48.6533C162.984 48.4085 162.815 48.1191 162.712 47.8043C162.609 47.4895 162.575 47.1564 162.61 46.8271L165.43 15.1171C165.501 14.4387 165.818 13.8097 166.321 13.3491C166.824 12.8885 167.478 12.628 168.16 12.6171H205.66C205.991 12.6123 206.32 12.678 206.623 12.8096C206.927 12.9413 207.2 13.1359 207.423 13.3808C207.646 13.6256 207.815 13.915 207.918 14.2298C208.02 14.5446 208.055 14.8777 208.02 15.2071L205.2 46.9171C205.131 47.5946 204.817 48.2234 204.315 48.6842C203.814 49.145 203.161 49.4058 202.48 49.4171ZM168.16 13.6171C167.727 13.6265 167.311 13.7928 166.991 14.0852C166.671 14.3777 166.468 14.7763 166.42 15.2071L163.61 46.9171C163.587 47.1094 163.605 47.3045 163.663 47.4891C163.722 47.6737 163.82 47.8436 163.95 47.9871C164.078 48.1233 164.233 48.2317 164.405 48.3056C164.577 48.3796 164.763 48.4175 164.95 48.4171H202.46C202.892 48.4074 203.306 48.2407 203.625 47.9481C203.943 47.6555 204.144 47.257 204.19 46.8271L207.01 15.1171C207.028 14.9258 207.006 14.7328 206.946 14.5504C206.886 14.3679 206.788 14.2 206.66 14.0571C206.533 13.9186 206.378 13.808 206.206 13.7322C206.034 13.6565 205.848 13.6173 205.66 13.6171H168.16Z" fill="#547E9E"/>
<path d="M206.96 22.067H165.36C165.227 22.067 165.1 22.0144 165.006 21.9206C164.913 21.8268 164.86 21.6997 164.86 21.567C164.86 21.4344 164.913 21.3073 165.006 21.2135C165.1 21.1197 165.227 21.067 165.36 21.067H206.96C207.093 21.067 207.22 21.1197 207.314 21.2135C207.407 21.3073 207.46 21.4344 207.46 21.567C207.457 21.6989 207.404 21.8245 207.311 21.9178C207.217 22.011 207.092 22.0645 206.96 22.067V22.067Z" fill="#547E9E"/>
<path d="M172.76 49.417H172.71C172.645 49.412 172.581 49.394 172.523 49.364C172.464 49.3339 172.413 49.2925 172.371 49.2422C172.329 49.1918 172.297 49.1335 172.278 49.0708C172.259 49.0081 172.253 48.9422 172.26 48.877L174.69 21.517C174.705 21.3871 174.77 21.2679 174.87 21.1842C174.971 21.1004 175.099 21.0585 175.23 21.067C175.296 21.0721 175.36 21.0901 175.418 21.12C175.477 21.1499 175.53 21.1911 175.572 21.2413C175.615 21.2915 175.647 21.3497 175.668 21.4124C175.688 21.4752 175.695 21.5413 175.69 21.607L173.25 48.997C173.229 49.1128 173.169 49.2179 173.08 49.2944C172.99 49.3709 172.877 49.4143 172.76 49.417Z" fill="#547E9E"/>
<path d="M202.08 25.317H179.5C179.367 25.317 179.24 25.2644 179.146 25.1706C179.053 25.0768 179 24.9497 179 24.817C179 24.6844 179.053 24.5573 179.146 24.4635C179.24 24.3697 179.367 24.317 179.5 24.317H202.08C202.213 24.317 202.34 24.3697 202.434 24.4635C202.527 24.5573 202.58 24.6844 202.58 24.817C202.58 24.9497 202.527 25.0768 202.434 25.1706C202.34 25.2644 202.213 25.317 202.08 25.317Z" fill="#547E9E"/>
<path d="M198.54 29.307H179.14C179.008 29.3045 178.882 29.251 178.789 29.1578C178.696 29.0645 178.642 28.9388 178.64 28.807C178.64 28.6744 178.693 28.5473 178.786 28.4535C178.88 28.3597 179.007 28.307 179.14 28.307H198.54C198.672 28.307 198.8 28.3597 198.893 28.4535C198.987 28.5473 199.04 28.6744 199.04 28.807C199.04 28.9396 198.987 29.0668 198.893 29.1606C198.8 29.2544 198.672 29.307 198.54 29.307Z" fill="#547E9E"/>
<path d="M190.07 33.4171H178.76C178.627 33.4171 178.5 33.3644 178.406 33.2706C178.313 33.1768 178.26 33.0497 178.26 32.9171C178.26 32.7844 178.313 32.6573 178.406 32.5635C178.5 32.4697 178.627 32.4171 178.76 32.4171H190.05C190.182 32.4196 190.308 32.4731 190.401 32.5663C190.494 32.6595 190.547 32.7852 190.55 32.9171C190.55 33.0463 190.5 33.1705 190.411 33.2637C190.321 33.3569 190.199 33.4119 190.07 33.4171V33.4171Z" fill="#547E9E"/>
<path d="M191.85 41.4471H178.06C177.927 41.4471 177.8 41.3944 177.706 41.3006C177.613 41.2068 177.56 41.0797 177.56 40.9471C177.562 40.8152 177.616 40.6895 177.709 40.5963C177.802 40.5031 177.928 40.4496 178.06 40.4471H191.85C191.982 40.4496 192.107 40.5031 192.201 40.5963C192.294 40.6895 192.347 40.8152 192.35 40.9471C192.35 41.0127 192.337 41.0777 192.312 41.1384C192.287 41.1991 192.25 41.2542 192.203 41.3006C192.157 41.347 192.102 41.3839 192.041 41.409C191.981 41.4341 191.916 41.4471 191.85 41.4471Z" fill="#547E9E"/>
<path d="M188.99 45.567H177.7C177.567 45.567 177.44 45.5144 177.346 45.4206C177.253 45.3268 177.2 45.1997 177.2 45.067C177.2 44.9344 177.253 44.8073 177.346 44.7135C177.44 44.6197 177.567 44.567 177.7 44.567H188.99C189.123 44.567 189.25 44.6197 189.344 44.7135C189.437 44.8073 189.49 44.9344 189.49 45.067C189.49 45.1997 189.437 45.3268 189.344 45.4206C189.25 45.5144 189.123 45.567 188.99 45.567Z" fill="#547E9E"/>
<path d="M195.6 45.567H191.98C191.847 45.567 191.72 45.5144 191.626 45.4206C191.533 45.3268 191.48 45.1997 191.48 45.067C191.48 44.9344 191.533 44.8073 191.626 44.7135C191.72 44.6197 191.847 44.567 191.98 44.567H195.6C195.733 44.567 195.86 44.6197 195.954 44.7135C196.047 44.8073 196.1 44.9344 196.1 45.067C196.1 45.1997 196.047 45.3268 195.954 45.4206C195.86 45.5144 195.733 45.567 195.6 45.567Z" fill="#547E9E"/>
<path d="M199.57 37.407H178.42C178.287 37.407 178.16 37.3544 178.066 37.2606C177.973 37.1668 177.92 37.0397 177.92 36.907C177.92 36.7744 177.973 36.6473 178.066 36.5535C178.16 36.4597 178.287 36.407 178.42 36.407H199.57C199.703 36.407 199.83 36.4597 199.923 36.5535C200.017 36.6473 200.07 36.7744 200.07 36.907C200.07 37.0397 200.017 37.1668 199.923 37.2606C199.83 37.3544 199.703 37.407 199.57 37.407Z" fill="#547E9E"/>
<path d="M124.9 46.3071C124.765 46.3067 124.635 46.2528 124.54 46.1571C124.448 46.0636 124.397 45.9379 124.397 45.8071C124.397 45.6762 124.448 45.5505 124.54 45.4571L127.04 42.9571L124.54 40.4671C124.493 40.4204 124.456 40.3651 124.431 40.3042C124.406 40.2433 124.393 40.178 124.393 40.1121C124.393 40.0461 124.406 39.9808 124.431 39.9199C124.456 39.859 124.493 39.8037 124.54 39.757C124.587 39.7104 124.642 39.6735 124.703 39.6482C124.764 39.623 124.829 39.61 124.895 39.61C124.961 39.61 125.026 39.623 125.087 39.6482C125.148 39.6735 125.203 39.7104 125.25 39.757L128.1 42.6071C128.192 42.7022 128.244 42.8295 128.244 42.9621C128.244 43.0946 128.192 43.2219 128.1 43.3171L125.25 46.1571C125.205 46.2042 125.15 46.2417 125.09 46.2674C125.03 46.2932 124.965 46.3067 124.9 46.3071V46.3071Z" fill="#263238"/>
<path d="M116.36 46.3071C116.295 46.3067 116.23 46.2932 116.17 46.2674C116.11 46.2417 116.055 46.2042 116.01 46.1571L113.16 43.3171C113.068 43.2219 113.016 43.0946 113.016 42.9621C113.016 42.8295 113.068 42.7022 113.16 42.6071L116.01 39.757C116.057 39.7104 116.112 39.6735 116.173 39.6482C116.234 39.623 116.299 39.61 116.365 39.61C116.431 39.61 116.496 39.623 116.557 39.6482C116.618 39.6735 116.673 39.7104 116.72 39.757C116.767 39.8037 116.804 39.859 116.829 39.9199C116.854 39.9808 116.867 40.0461 116.867 40.1121C116.867 40.178 116.854 40.2433 116.829 40.3042C116.804 40.3651 116.767 40.4204 116.72 40.4671L114.22 42.9571L116.72 45.4571C116.812 45.5505 116.863 45.6762 116.863 45.8071C116.863 45.9379 116.812 46.0636 116.72 46.1571C116.625 46.2528 116.495 46.3067 116.36 46.3071V46.3071Z" fill="#263238"/>
<path d="M119.56 46.307C119.504 46.3165 119.446 46.3165 119.39 46.307C119.267 46.2599 119.168 46.1664 119.114 46.0466C119.059 45.9268 119.054 45.7904 119.1 45.667L121.23 39.967C121.277 39.8442 121.371 39.7449 121.49 39.6907C121.61 39.6364 121.747 39.6315 121.87 39.677C121.995 39.7222 122.096 39.8149 122.152 39.9349C122.209 40.0549 122.215 40.1924 122.17 40.317L120.03 46.017C119.99 46.107 119.923 46.1828 119.84 46.2346C119.756 46.2863 119.658 46.3115 119.56 46.307V46.307Z" fill="#263238"/>
<path d="M188.69 120.097C188.624 120.098 188.559 120.085 188.499 120.059C188.439 120.033 188.385 119.995 188.34 119.947C188.293 119.901 188.256 119.845 188.23 119.784C188.205 119.723 188.192 119.658 188.192 119.592C188.192 119.526 188.205 119.461 188.23 119.4C188.256 119.339 188.293 119.284 188.34 119.237L190.83 116.747L188.34 114.247C188.247 114.154 188.195 114.028 188.195 113.897C188.195 113.766 188.247 113.64 188.34 113.547C188.433 113.454 188.559 113.402 188.69 113.402C188.821 113.402 188.947 113.454 189.04 113.547L191.89 116.387C191.984 116.484 192.037 116.612 192.04 116.747C192.037 116.879 191.983 117.004 191.89 117.097L189.04 119.997C188.991 120.036 188.935 120.065 188.875 120.082C188.815 120.099 188.752 120.104 188.69 120.097V120.097Z" fill="#547E9E"/>
<path d="M180.15 120.097C180.082 120.108 180.012 120.105 179.944 120.088C179.877 120.071 179.814 120.04 179.76 119.997L176.91 117.147C176.818 117.052 176.766 116.925 176.766 116.792C176.766 116.66 176.818 116.532 176.91 116.437L179.76 113.597C179.806 113.55 179.862 113.513 179.923 113.488C179.984 113.462 180.049 113.449 180.115 113.449C180.181 113.449 180.246 113.462 180.307 113.488C180.368 113.513 180.423 113.55 180.47 113.597C180.562 113.691 180.613 113.816 180.613 113.947C180.613 114.078 180.562 114.204 180.47 114.297L177.97 116.797L180.47 119.287C180.562 119.382 180.614 119.51 180.614 119.642C180.614 119.775 180.562 119.902 180.47 119.997C180.378 120.065 180.265 120.101 180.15 120.097V120.097Z" fill="#547E9E"/>
<path d="M183.36 120.097C183.301 120.111 183.239 120.111 183.18 120.097C183.118 120.075 183.062 120.04 183.014 119.996C182.966 119.952 182.927 119.898 182.9 119.838C182.873 119.779 182.858 119.714 182.856 119.649C182.855 119.583 182.866 119.518 182.89 119.457L185.02 113.757C185.066 113.632 185.16 113.531 185.281 113.476C185.402 113.421 185.54 113.416 185.665 113.462C185.79 113.508 185.891 113.602 185.946 113.723C186.001 113.844 186.006 113.982 185.96 114.107L183.82 119.807C183.78 119.895 183.716 119.97 183.634 120.022C183.552 120.073 183.457 120.1 183.36 120.097V120.097Z" fill="#547E9E"/>
<path d="M166.11 6.69704C165.975 6.69671 165.845 6.64277 165.75 6.54705C165.658 6.45359 165.607 6.32792 165.607 6.19704C165.607 6.06617 165.658 5.94051 165.75 5.84705L168.25 3.34705L165.75 0.857048C165.656 0.762896 165.603 0.635196 165.603 0.502045C165.603 0.368894 165.656 0.241201 165.75 0.147049C165.844 0.0528971 165.972 0 166.105 0C166.238 0 166.366 0.0528971 166.46 0.147049L169.31 2.99705C169.402 3.0922 169.454 3.21952 169.454 3.35205C169.454 3.48458 169.402 3.6119 169.31 3.70705L166.46 6.54705C166.415 6.59414 166.36 6.63168 166.3 6.65744C166.24 6.6832 166.175 6.69666 166.11 6.69704Z" fill="#547E9E"/>
<path d="M157.57 6.69704C157.438 6.69517 157.312 6.64126 157.22 6.54705L154.37 3.70705C154.278 3.6119 154.226 3.48458 154.226 3.35205C154.226 3.21952 154.278 3.0922 154.37 2.99705L157.22 0.147049C157.314 0.0528971 157.442 0 157.575 0C157.708 0 157.836 0.0528971 157.93 0.147049C158.024 0.241201 158.077 0.368894 158.077 0.502045C158.077 0.635196 158.024 0.762896 157.93 0.857048L155.43 3.34705L157.93 5.84705C158.022 5.94051 158.073 6.06617 158.073 6.19704C158.073 6.32792 158.022 6.45359 157.93 6.54705C157.835 6.64277 157.705 6.69671 157.57 6.69704V6.69704Z" fill="#547E9E"/>
<path d="M160.76 6.69704H160.59C160.467 6.64994 160.368 6.55637 160.314 6.43657C160.259 6.31678 160.254 6.18042 160.3 6.05704L162.43 0.357044C162.477 0.23425 162.571 0.134958 162.69 0.0806773C162.81 0.0263962 162.947 0.0214962 163.07 0.0670436C163.195 0.112175 163.296 0.204939 163.352 0.324948C163.409 0.444956 163.415 0.582388 163.37 0.707043L161.23 6.40705C161.19 6.49703 161.124 6.57284 161.04 6.62457C160.956 6.6763 160.858 6.70155 160.76 6.69704Z" fill="#547E9E"/>
</svg>
